<svg width="540" height="107" viewBox="0 0 540 107" fill="none" xmlns="http://www.w3.org/2000/svg">
<path d="M78.1632 12.6364V49H70.475V12.6364H78.1632ZM107.038 29.5043L100.114 29.9304C99.9953 29.3385 99.7408 28.8059 99.3501 28.3324C98.9595 27.8471 98.4446 27.4624 97.8054 27.1783C97.178 26.8823 96.4264 26.7344 95.5504 26.7344C94.3786 26.7344 93.3902 26.983 92.5852 27.4801C91.7803 27.9654 91.3778 28.6165 91.3778 29.4332C91.3778 30.0843 91.6383 30.6347 92.1591 31.0845C92.6799 31.5343 93.5736 31.8954 94.8402 32.1676L99.7763 33.1619C102.428 33.7064 104.405 34.5824 105.707 35.7898C107.009 36.9972 107.66 38.5833 107.66 40.5483C107.66 42.3357 107.133 43.9041 106.08 45.2536C105.038 46.603 103.606 47.6565 101.783 48.4141C99.9716 49.1598 97.8823 49.5327 95.5149 49.5327C91.9046 49.5327 89.0282 48.781 86.8857 47.2777C84.755 45.7625 83.5062 43.7029 83.1392 41.0987L90.5788 40.7081C90.8037 41.8089 91.3482 42.6494 92.2124 43.2294C93.0765 43.7976 94.1832 44.0817 95.5327 44.0817C96.8584 44.0817 97.9238 43.8272 98.7287 43.3182C99.5455 42.7973 99.9598 42.1286 99.9716 41.3118C99.9598 40.6252 99.6697 40.063 99.1016 39.625C98.5334 39.1752 97.6574 38.8319 96.4737 38.5952L91.7507 37.6541C89.0874 37.1214 87.1046 36.1982 85.8026 34.8842C84.5123 33.5703 83.8672 31.8954 83.8672 29.8594C83.8672 28.1075 84.3407 26.5982 85.2876 25.3317C86.2464 24.0651 87.59 23.0885 89.3182 22.402C91.0582 21.7154 93.0942 21.3722 95.4261 21.3722C98.8707 21.3722 101.581 22.1001 103.558 23.5561C105.547 25.0121 106.707 26.9948 107.038 29.5043ZM135.115 29.5043L128.19 29.9304C128.071 29.3385 127.817 28.8059 127.426 28.3324C127.036 27.8471 126.521 27.4624 125.882 27.1783C125.254 26.8823 124.503 26.7344 123.627 26.7344C122.455 26.7344 121.466 26.983 120.661 27.4801C119.856 27.9654 119.454 28.6165 119.454 29.4332C119.454 30.0843 119.714 30.6347 120.235 31.0845C120.756 31.5343 121.65 31.8954 122.916 32.1676L127.852 33.1619C130.504 33.7064 132.481 34.5824 133.783 35.7898C135.085 36.9972 135.736 38.5833 135.736 40.5483C135.736 42.3357 135.209 43.9041 134.156 45.2536C133.114 46.603 131.682 47.6565 129.859 48.4141C128.048 49.1598 125.959 49.5327 123.591 49.5327C119.981 49.5327 117.104 48.781 114.962 47.2777C112.831 45.7625 111.582 43.7029 111.215 41.0987L118.655 40.7081C118.88 41.8089 119.424 42.6494 120.289 43.2294C121.153 43.7976 122.259 44.0817 123.609 44.0817C124.935 44.0817 126 43.8272 126.805 43.3182C127.622 42.7973 128.036 42.1286 128.048 41.3118C128.036 40.6252 127.746 40.063 127.178 39.625C126.61 39.1752 125.734 38.8319 124.55 38.5952L119.827 37.6541C117.164 37.1214 115.181 36.1982 113.879 34.8842C112.588 33.5703 111.943 31.8954 111.943 29.8594C111.943 28.1075 112.417 26.5982 113.364 25.3317C114.323 24.0651 115.666 23.0885 117.394 22.402C119.134 21.7154 121.17 21.3722 123.502 21.3722C126.947 21.3722 129.658 22.1001 131.634 23.5561C133.623 25.0121 134.783 26.9948 135.115 29.5043ZM157.988 37.3878V21.7273H165.552V49H158.29V44.0462H158.006C157.391 45.6442 156.367 46.9285 154.934 47.8991C153.514 48.8698 151.78 49.3551 149.732 49.3551C147.909 49.3551 146.305 48.9408 144.92 48.1122C143.535 47.2836 142.452 46.1058 141.671 44.5788C140.901 43.0518 140.511 41.223 140.499 39.0923V21.7273H148.063V37.7429C148.075 39.3527 148.507 40.6252 149.359 41.5604C150.211 42.4955 151.354 42.9631 152.786 42.9631C153.697 42.9631 154.55 42.7559 155.343 42.3416C156.136 41.9155 156.775 41.2881 157.26 40.4595C157.757 39.6309 158 38.607 157.988 37.3878ZM184.031 49.5327C181.226 49.5327 178.811 48.9645 176.787 47.8281C174.775 46.6799 173.224 45.0582 172.135 42.9631C171.046 40.8561 170.502 38.3643 170.502 35.4879C170.502 32.6825 171.046 30.2204 172.135 28.1016C173.224 25.9827 174.757 24.3314 176.734 23.1477C178.722 21.964 181.054 21.3722 183.73 21.3722C185.529 21.3722 187.204 21.6622 188.754 22.2422C190.317 22.8104 191.678 23.6686 192.838 24.8168C194.01 25.965 194.922 27.4091 195.573 29.1491C196.224 30.8774 196.549 32.9015 196.549 35.2216V37.299H173.52V32.6115H189.429C189.429 31.5225 189.192 30.5578 188.719 29.7173C188.245 28.8769 187.588 28.2199 186.748 27.7464C185.919 27.2611 184.955 27.0185 183.854 27.0185C182.706 27.0185 181.688 27.2848 180.8 27.8175C179.924 28.3383 179.237 29.0426 178.74 29.9304C178.243 30.8063 177.989 31.7829 177.977 32.8601V37.3168C177.977 38.6662 178.225 39.8321 178.722 40.8146C179.231 41.7971 179.948 42.5547 180.871 43.0874C181.794 43.62 182.889 43.8864 184.156 43.8864C184.996 43.8864 185.766 43.768 186.464 43.5312C187.162 43.2945 187.76 42.9394 188.257 42.4659C188.754 41.9924 189.133 41.4124 189.394 40.7259L196.389 41.1875C196.034 42.8684 195.306 44.3362 194.205 45.5909C193.116 46.8338 191.708 47.8045 189.98 48.5028C188.263 49.1894 186.28 49.5327 184.031 49.5327ZM245.284 25.3672H237.507C237.365 24.361 237.075 23.4673 236.637 22.6861C236.199 21.893 235.637 21.2183 234.95 20.6619C234.264 20.1056 233.471 19.6794 232.571 19.3835C231.683 19.0876 230.719 18.9396 229.677 18.9396C227.795 18.9396 226.155 19.4072 224.759 20.3423C223.362 21.2656 222.279 22.6151 221.509 24.3906C220.74 26.1544 220.355 28.2969 220.355 30.8182C220.355 33.4105 220.74 35.5885 221.509 37.3523C222.29 39.116 223.379 40.4477 224.776 41.3473C226.173 42.2469 227.789 42.6967 229.624 42.6967C230.653 42.6967 231.606 42.5606 232.482 42.2884C233.37 42.0161 234.157 41.6196 234.844 41.0987C235.53 40.5661 236.098 39.9209 236.548 39.1634C237.01 38.4058 237.33 37.5417 237.507 36.571L245.284 36.6065C245.083 38.2756 244.58 39.8854 243.775 41.4361C242.982 42.9749 241.911 44.3539 240.561 45.5732C239.223 46.7805 237.625 47.7393 235.767 48.4496C233.92 49.148 231.831 49.4972 229.499 49.4972C226.256 49.4972 223.356 48.7633 220.799 47.2955C218.254 45.8277 216.242 43.7029 214.762 40.9212C213.294 38.1394 212.56 34.7718 212.56 30.8182C212.56 26.8527 213.306 23.4792 214.798 20.6974C216.289 17.9157 218.313 15.7969 220.87 14.3409C223.427 12.8731 226.303 12.1392 229.499 12.1392C231.606 12.1392 233.559 12.4351 235.359 13.027C237.17 13.6188 238.774 14.483 240.17 15.6193C241.567 16.7438 242.704 18.1229 243.58 19.7564C244.467 21.3899 245.036 23.2602 245.284 25.3672ZM263.084 49.5327C260.279 49.5327 257.864 48.9645 255.84 47.8281C253.828 46.6799 252.277 45.0582 251.188 42.9631C250.099 40.8561 249.554 38.3643 249.554 35.4879C249.554 32.6825 250.099 30.2204 251.188 28.1016C252.277 25.9827 253.81 24.3314 255.787 23.1477C257.775 21.964 260.107 21.3722 262.782 21.3722C264.582 21.3722 266.257 21.6622 267.807 22.2422C269.37 22.8104 270.731 23.6686 271.891 24.8168C273.063 25.965 273.974 27.4091 274.625 29.1491C275.276 30.8774 275.602 32.9015 275.602 35.2216V37.299H252.573V32.6115H268.482C268.482 31.5225 268.245 30.5578 267.772 29.7173C267.298 28.8769 266.641 28.2199 265.801 27.7464C264.972 27.2611 264.007 27.0185 262.907 27.0185C261.758 27.0185 260.74 27.2848 259.853 27.8175C258.977 28.3383 258.29 29.0426 257.793 29.9304C257.296 30.8063 257.041 31.7829 257.029 32.8601V37.3168C257.029 38.6662 257.278 39.8321 257.775 40.8146C258.284 41.7971 259 42.5547 259.924 43.0874C260.847 43.62 261.942 43.8864 263.208 43.8864C264.049 43.8864 264.818 43.768 265.517 43.5312C266.215 43.2945 266.813 42.9394 267.31 42.4659C267.807 41.9924 268.186 41.4124 268.446 40.7259L275.442 41.1875C275.087 42.8684 274.359 44.3362 273.258 45.5909C272.169 46.8338 270.761 47.8045 269.032 48.5028C267.316 49.1894 265.333 49.5327 263.084 49.5327ZM280.538 49V21.7273H287.871V26.4858H288.155C288.652 24.7931 289.487 23.5147 290.659 22.6506C291.831 21.7746 293.18 21.3366 294.707 21.3366C295.086 21.3366 295.494 21.3603 295.932 21.4077C296.37 21.455 296.755 21.5201 297.086 21.603V28.3146C296.731 28.2081 296.24 28.1134 295.613 28.0305C294.985 27.9477 294.411 27.9062 293.89 27.9062C292.778 27.9062 291.783 28.1489 290.907 28.6342C290.043 29.1077 289.357 29.7706 288.848 30.6229C288.35 31.4751 288.102 32.4576 288.102 33.5703V49H280.538ZM316.871 21.7273V27.4091H300.447V21.7273H316.871ZM304.175 15.1932H311.739V40.6193C311.739 41.3177 311.846 41.8622 312.059 42.2528C312.272 42.6316 312.568 42.898 312.947 43.0518C313.337 43.2057 313.787 43.2827 314.296 43.2827C314.651 43.2827 315.006 43.2531 315.361 43.1939C315.716 43.1229 315.989 43.0696 316.178 43.0341L317.368 48.6626C316.989 48.781 316.456 48.9171 315.77 49.071C315.083 49.2367 314.249 49.3374 313.266 49.3729C311.443 49.4439 309.845 49.2012 308.472 48.6449C307.111 48.0885 306.051 47.2244 305.294 46.0526C304.536 44.8807 304.163 43.401 304.175 41.6136V15.1932ZM321.798 49V21.7273H329.362V49H321.798ZM325.597 18.2116C324.473 18.2116 323.508 17.8388 322.703 17.093C321.91 16.3355 321.514 15.4299 321.514 14.3764C321.514 13.3348 321.91 12.4411 322.703 11.6953C323.508 10.9377 324.473 10.5589 325.597 10.5589C326.722 10.5589 327.681 10.9377 328.474 11.6953C329.279 12.4411 329.681 13.3348 329.681 14.3764C329.681 15.4299 329.279 16.3355 328.474 17.093C327.681 17.8388 326.722 18.2116 325.597 18.2116ZM350.087 21.7273V27.4091H333.255V21.7273H350.087ZM337.108 49V19.7564C337.108 17.7796 337.492 16.1401 338.262 14.8381C339.043 13.536 340.108 12.5594 341.458 11.9084C342.807 11.2573 344.34 10.9318 346.056 10.9318C347.217 10.9318 348.276 11.0206 349.235 11.1982C350.205 11.3757 350.927 11.5355 351.401 11.6776L350.051 17.3594C349.756 17.2647 349.389 17.1759 348.951 17.093C348.525 17.0102 348.087 16.9688 347.637 16.9688C346.524 16.9688 345.749 17.2292 345.311 17.75C344.873 18.259 344.654 18.9751 344.654 19.8984V49H337.108ZM354.708 49V21.7273H362.272V49H354.708ZM358.508 18.2116C357.383 18.2116 356.418 17.8388 355.613 17.093C354.82 16.3355 354.424 15.4299 354.424 14.3764C354.424 13.3348 354.82 12.4411 355.613 11.6953C356.418 10.9377 357.383 10.5589 358.508 10.5589C359.632 10.5589 360.591 10.9377 361.384 11.6953C362.189 12.4411 362.591 13.3348 362.591 14.3764C362.591 15.4299 362.189 16.3355 361.384 17.093C360.591 17.8388 359.632 18.2116 358.508 18.2116ZM380.653 49.5327C377.86 49.5327 375.457 48.9408 373.445 47.7571C371.444 46.5616 369.905 44.9044 368.828 42.7855C367.763 40.6667 367.23 38.2282 367.23 35.4702C367.23 32.6766 367.769 30.2263 368.846 28.1193C369.935 26.0005 371.48 24.3492 373.48 23.1655C375.481 21.9699 377.86 21.3722 380.618 21.3722C382.997 21.3722 385.08 21.8042 386.868 22.6683C388.655 23.5324 390.07 24.7457 391.112 26.3082C392.153 27.8707 392.727 29.7055 392.834 31.8125H385.696C385.495 30.4512 384.962 29.3563 384.098 28.5277C383.246 27.6873 382.127 27.267 380.742 27.267C379.57 27.267 378.546 27.5866 377.67 28.2259C376.806 28.8532 376.132 29.7706 375.646 30.978C375.161 32.1854 374.918 33.6473 374.918 35.3636C374.918 37.1037 375.155 38.5833 375.629 39.8026C376.114 41.0218 376.795 41.951 377.67 42.5902C378.546 43.2294 379.57 43.549 380.742 43.549C381.606 43.549 382.382 43.3714 383.068 43.0163C383.767 42.6612 384.341 42.1463 384.79 41.4716C385.252 40.785 385.554 39.9624 385.696 39.0036H392.834C392.715 41.0869 392.147 42.9216 391.129 44.5078C390.123 46.0821 388.732 47.3132 386.957 48.201C385.181 49.0888 383.08 49.5327 380.653 49.5327ZM405.454 49.5149C403.714 49.5149 402.163 49.2131 400.802 48.6094C399.44 47.9938 398.363 47.0883 397.57 45.8928C396.789 44.6854 396.398 43.1821 396.398 41.3828C396.398 39.8677 396.676 38.5952 397.233 37.5653C397.789 36.5355 398.547 35.7069 399.506 35.0795C400.464 34.4522 401.553 33.9787 402.773 33.6591C404.004 33.3395 405.294 33.1146 406.643 32.9844C408.229 32.8187 409.508 32.6648 410.479 32.5227C411.449 32.3688 412.153 32.1439 412.591 31.848C413.029 31.5521 413.248 31.1141 413.248 30.5341V30.4276C413.248 29.303 412.893 28.433 412.183 27.8175C411.485 27.2019 410.49 26.8942 409.2 26.8942C407.839 26.8942 406.756 27.196 405.951 27.7997C405.146 28.3916 404.613 29.1373 404.353 30.0369L397.357 29.4688C397.712 27.8116 398.411 26.3793 399.452 25.1719C400.494 23.9527 401.837 23.0175 403.483 22.3665C405.14 21.7036 407.058 21.3722 409.236 21.3722C410.751 21.3722 412.201 21.5497 413.586 21.9048C414.983 22.2599 416.22 22.8104 417.297 23.5561C418.386 24.3018 419.244 25.2607 419.871 26.4325C420.499 27.5926 420.812 28.9834 420.812 30.6051V49H413.639V45.218H413.426C412.988 46.0703 412.402 46.822 411.668 47.473C410.934 48.1122 410.052 48.6153 409.023 48.9822C407.993 49.3374 406.803 49.5149 405.454 49.5149ZM407.62 44.2947C408.733 44.2947 409.715 44.0758 410.567 43.6378C411.42 43.188 412.088 42.5843 412.574 41.8267C413.059 41.0691 413.302 40.2109 413.302 39.2521V36.358C413.065 36.5118 412.739 36.6539 412.325 36.7841C411.923 36.9025 411.467 37.0149 410.958 37.1214C410.449 37.2161 409.94 37.3049 409.431 37.3878C408.922 37.4588 408.46 37.5239 408.046 37.5831C407.158 37.7133 406.383 37.9205 405.72 38.2045C405.057 38.4886 404.542 38.8733 404.175 39.3587C403.808 39.8321 403.625 40.424 403.625 41.1342C403.625 42.1641 403.998 42.9512 404.743 43.4957C405.501 44.0284 406.46 44.2947 407.62 44.2947ZM441.187 21.7273V27.4091H424.763V21.7273H441.187ZM428.492 15.1932H436.056V40.6193C436.056 41.3177 436.162 41.8622 436.375 42.2528C436.588 42.6316 436.884 42.898 437.263 43.0518C437.654 43.2057 438.103 43.2827 438.612 43.2827C438.968 43.2827 439.323 43.2531 439.678 43.1939C440.033 43.1229 440.305 43.0696 440.494 43.0341L441.684 48.6626C441.305 48.781 440.773 48.9171 440.086 49.071C439.4 49.2367 438.565 49.3374 437.583 49.3729C435.76 49.4439 434.162 49.2012 432.789 48.6449C431.427 48.0885 430.368 47.2244 429.61 46.0526C428.853 44.8807 428.48 43.401 428.492 41.6136V15.1932ZM458.25 49.5327C455.445 49.5327 453.03 48.9645 451.006 47.8281C448.994 46.6799 447.443 45.0582 446.354 42.9631C445.265 40.8561 444.72 38.3643 444.72 35.4879C444.72 32.6825 445.265 30.2204 446.354 28.1016C447.443 25.9827 448.976 24.3314 450.953 23.1477C452.941 21.964 455.273 21.3722 457.948 21.3722C459.748 21.3722 461.423 21.6622 462.973 22.2422C464.536 22.8104 465.897 23.6686 467.057 24.8168C468.229 25.965 469.14 27.4091 469.791 29.1491C470.442 30.8774 470.768 32.9015 470.768 35.2216V37.299H447.739V32.6115H463.648C463.648 31.5225 463.411 30.5578 462.938 29.7173C462.464 28.8769 461.807 28.2199 460.967 27.7464C460.138 27.2611 459.173 27.0185 458.073 27.0185C456.924 27.0185 455.906 27.2848 455.019 27.8175C454.143 28.3383 453.456 29.0426 452.959 29.9304C452.462 30.8063 452.207 31.7829 452.195 32.8601V37.3168C452.195 38.6662 452.444 39.8321 452.941 40.8146C453.45 41.7971 454.166 42.5547 455.09 43.0874C456.013 43.62 457.108 43.8864 458.374 43.8864C459.215 43.8864 459.984 43.768 460.683 43.5312C461.381 43.2945 461.979 42.9394 462.476 42.4659C462.973 41.9924 463.352 41.4124 463.612 40.7259L470.608 41.1875C470.253 42.8684 469.525 44.3362 468.424 45.5909C467.335 46.8338 465.927 47.8045 464.198 48.5028C462.482 49.1894 460.499 49.5327 458.25 49.5327Z" fill="white"/>
<path d="M8.16 102.3C7.16 102.3 6.25 102.15 5.43 101.85C4.61 101.53 3.9 101.07 3.3 100.47C2.72 99.87 2.27 99.13 1.95 98.25C1.63 97.35 1.47 96.33 1.47 95.19C1.47 94.03 1.63 93 1.95 92.1C2.29 91.2 2.74 90.45 3.3 89.85C3.88 89.23 4.55 88.76 5.31 88.44C6.09 88.12 6.91 87.96 7.77 87.96C8.55 87.96 9.28 88.09 9.96 88.35C10.64 88.61 11.23 89.01 11.73 89.55C12.23 90.07 12.62 90.74 12.9 91.56C13.2 92.38 13.35 93.35 13.35 94.47C13.35 94.63 13.34 94.8 13.32 94.98C13.32 95.14 13.31 95.3 13.29 95.46H3.54C3.58 96.34 3.73 97.11 3.99 97.77C4.25 98.41 4.59 98.94 5.01 99.36C5.43 99.76 5.91 100.06 6.45 100.26C7.01 100.46 7.6 100.56 8.22 100.56C8.7 100.56 9.15 100.51 9.57 100.41C9.99 100.29 10.38 100.12 10.74 99.9C11.12 99.66 11.46 99.37 11.76 99.03L12.96 100.2C12.58 100.66 12.14 101.05 11.64 101.37C11.16 101.69 10.63 101.92 10.05 102.06C9.47 102.22 8.84 102.3 8.16 102.3ZM3.63 93.78H11.16C11.16 93.14 11.07 92.57 10.89 92.07C10.73 91.55 10.49 91.11 10.17 90.75C9.87 90.37 9.5 90.09 9.06 89.91C8.64 89.71 8.16 89.61 7.62 89.61C7.14 89.61 6.68 89.69 6.24 89.85C5.82 90.01 5.43 90.27 5.07 90.63C4.71 90.97 4.4 91.4 4.14 91.92C3.9 92.44 3.73 93.06 3.63 93.78ZM17.16 102V88.29H19.26V90.72C19.62 90.16 20.04 89.68 20.52 89.28C21 88.86 21.53 88.54 22.11 88.32C22.69 88.08 23.29 87.96 23.91 87.96C24.67 87.96 25.35 88.15 25.95 88.53C26.55 88.91 27.03 89.52 27.39 90.36C27.75 91.2 27.93 92.31 27.93 93.69V102H25.83V93.75C25.83 92.79 25.72 92.03 25.5 91.47C25.28 90.89 24.98 90.48 24.6 90.24C24.22 89.98 23.79 89.85 23.31 89.85C22.85 89.85 22.38 89.95 21.9 90.15C21.44 90.35 21.01 90.64 20.61 91.02C20.21 91.38 19.88 91.82 19.62 92.34C19.38 92.86 19.26 93.45 19.26 94.11V102H17.16ZM38.97 102.21C38.09 102.21 37.37 102.06 36.81 101.76C36.25 101.46 35.82 101 35.52 100.38C35.22 99.74 35.02 98.94 34.92 97.98C34.84 97.02 34.82 95.88 34.86 94.56L35.22 84.78L37.47 84.51L37.77 84.48L37.8 84.69C37.7 84.83 37.61 84.97 37.53 85.11C37.47 85.25 37.42 85.49 37.38 85.83L37.11 89.22L37.2 89.76L36.99 94.71C36.93 96.23 36.97 97.41 37.11 98.25C37.25 99.07 37.5 99.64 37.86 99.96C38.22 100.26 38.7 100.41 39.3 100.41C39.96 100.41 40.54 100.28 41.04 100.02C41.56 99.76 42.1 99.43 42.66 99.03L43.32 100.74C42.64 101.24 41.94 101.61 41.22 101.85C40.5 102.09 39.75 102.21 38.97 102.21ZM32.1 88.29H41.97V90.06H32.1V88.29ZM53.16 102.3C52.16 102.3 51.25 102.15 50.43 101.85C49.61 101.53 48.9 101.07 48.3 100.47C47.72 99.87 47.27 99.13 46.95 98.25C46.63 97.35 46.47 96.33 46.47 95.19C46.47 94.03 46.63 93 46.95 92.1C47.29 91.2 47.74 90.45 48.3 89.85C48.88 89.23 49.55 88.76 50.31 88.44C51.09 88.12 51.91 87.96 52.77 87.96C53.55 87.96 54.28 88.09 54.96 88.35C55.64 88.61 56.23 89.01 56.73 89.55C57.23 90.07 57.62 90.74 57.9 91.56C58.2 92.38 58.35 93.35 58.35 94.47C58.35 94.63 58.34 94.8 58.32 94.98C58.32 95.14 58.31 95.3 58.29 95.46H48.54C48.58 96.34 48.73 97.11 48.99 97.77C49.25 98.41 49.59 98.94 50.01 99.36C50.43 99.76 50.91 100.06 51.45 100.26C52.01 100.46 52.6 100.56 53.22 100.56C53.7 100.56 54.15 100.51 54.57 100.41C54.99 100.29 55.38 100.12 55.74 99.9C56.12 99.66 56.46 99.37 56.76 99.03L57.96 100.2C57.58 100.66 57.14 101.05 56.64 101.37C56.16 101.69 55.63 101.92 55.05 102.06C54.47 102.22 53.84 102.3 53.16 102.3ZM48.63 93.78H56.16C56.16 93.14 56.07 92.57 55.89 92.07C55.73 91.55 55.49 91.11 55.17 90.75C54.87 90.37 54.5 90.09 54.06 89.91C53.64 89.71 53.16 89.61 52.62 89.61C52.14 89.61 51.68 89.69 51.24 89.85C50.82 90.01 50.43 90.27 50.07 90.63C49.71 90.97 49.4 91.4 49.14 91.92C48.9 92.44 48.73 93.06 48.63 93.78ZM63.57 88.29H65.82L65.73 92.28L65.46 91.83C65.58 91.21 65.79 90.66 66.09 90.18C66.39 89.7 66.75 89.3 67.17 88.98C67.59 88.64 68.05 88.39 68.55 88.23C69.05 88.05 69.57 87.96 70.11 87.96C70.83 87.96 71.49 88.09 72.09 88.35C72.71 88.59 73.26 88.96 73.74 89.46L72.78 91.14L72.66 91.41L72.45 91.29C72.41 91.13 72.35 90.98 72.27 90.84C72.19 90.7 72.02 90.53 71.76 90.33C71.44 90.13 71.14 90 70.86 89.94C70.6 89.86 70.3 89.82 69.96 89.82C69.46 89.82 68.96 89.92 68.46 90.12C67.96 90.3 67.5 90.59 67.08 90.99C66.68 91.39 66.36 91.9 66.12 92.52C65.88 93.14 65.76 93.88 65.76 94.74V102.03H63.57V88.29ZM98.97 102.21C98.09 102.21 97.37 102.06 96.81 101.76C96.25 101.46 95.82 101 95.52 100.38C95.22 99.74 95.02 98.94 94.92 97.98C94.84 97.02 94.82 95.88 94.86 94.56L95.22 84.78L97.47 84.51L97.77 84.48L97.8 84.69C97.7 84.83 97.61 84.97 97.53 85.11C97.47 85.25 97.42 85.49 97.38 85.83L97.11 89.22L97.2 89.76L96.99 94.71C96.93 96.23 96.97 97.41 97.11 98.25C97.25 99.07 97.5 99.64 97.86 99.96C98.22 100.26 98.7 100.41 99.3 100.41C99.96 100.41 100.54 100.28 101.04 100.02C101.56 99.76 102.1 99.43 102.66 99.03L103.32 100.74C102.64 101.24 101.94 101.61 101.22 101.85C100.5 102.09 99.75 102.21 98.97 102.21ZM92.1 88.29H101.97V90.06H92.1V88.29ZM107.19 82.05H109.26H109.56V82.26C109.44 82.38 109.36 82.51 109.32 82.65C109.3 82.79 109.29 83.03 109.29 83.37V90.72C109.65 90.16 110.07 89.68 110.55 89.28C111.05 88.86 111.57 88.54 112.11 88.32C112.67 88.08 113.23 87.96 113.79 87.96C114.61 87.96 115.33 88.15 115.95 88.53C116.59 88.91 117.08 89.52 117.42 90.36C117.78 91.2 117.96 92.31 117.96 93.69V102H115.86V93.75C115.86 92.79 115.75 92.03 115.53 91.47C115.31 90.89 115.01 90.48 114.63 90.24C114.25 89.98 113.82 89.85 113.34 89.85C112.98 89.85 112.61 89.91 112.23 90.03C111.85 90.15 111.48 90.33 111.12 90.57C110.78 90.81 110.47 91.11 110.19 91.47C109.91 91.81 109.69 92.2 109.53 92.64C109.37 93.08 109.29 93.57 109.29 94.11V102H107.19V82.05ZM128.16 102.3C127.16 102.3 126.25 102.15 125.43 101.85C124.61 101.53 123.9 101.07 123.3 100.47C122.72 99.87 122.27 99.13 121.95 98.25C121.63 97.35 121.47 96.33 121.47 95.19C121.47 94.03 121.63 93 121.95 92.1C122.29 91.2 122.74 90.45 123.3 89.85C123.88 89.23 124.55 88.76 125.31 88.44C126.09 88.12 126.91 87.96 127.77 87.96C128.55 87.96 129.28 88.09 129.96 88.35C130.64 88.61 131.23 89.01 131.73 89.55C132.23 90.07 132.62 90.74 132.9 91.56C133.2 92.38 133.35 93.35 133.35 94.47C133.35 94.63 133.34 94.8 133.32 94.98C133.32 95.14 133.31 95.3 133.29 95.46H123.54C123.58 96.34 123.73 97.11 123.99 97.77C124.25 98.41 124.59 98.94 125.01 99.36C125.43 99.76 125.91 100.06 126.45 100.26C127.01 100.46 127.6 100.56 128.22 100.56C128.7 100.56 129.15 100.51 129.57 100.41C129.99 100.29 130.38 100.12 130.74 99.9C131.12 99.66 131.46 99.37 131.76 99.03L132.96 100.2C132.58 100.66 132.14 101.05 131.64 101.37C131.16 101.69 130.63 101.92 130.05 102.06C129.47 102.22 128.84 102.3 128.16 102.3ZM123.63 93.78H131.16C131.16 93.14 131.07 92.57 130.89 92.07C130.73 91.55 130.49 91.11 130.17 90.75C129.87 90.37 129.5 90.09 129.06 89.91C128.64 89.71 128.16 89.61 127.62 89.61C127.14 89.61 126.68 89.69 126.24 89.85C125.82 90.01 125.43 90.27 125.07 90.63C124.71 90.97 124.4 91.4 124.14 91.92C123.9 92.44 123.73 93.06 123.63 93.78ZM157.02 102.3C156.32 102.3 155.63 102.15 154.95 101.85C154.29 101.55 153.68 101.1 153.12 100.5C152.58 99.9 152.15 99.14 151.83 98.22C151.51 97.3 151.35 96.23 151.35 95.01C151.35 93.75 151.52 92.68 151.86 91.8C152.2 90.9 152.65 90.17 153.21 89.61C153.77 89.03 154.39 88.61 155.07 88.35C155.75 88.07 156.44 87.93 157.14 87.93C157.78 87.93 158.35 88.03 158.85 88.23C159.37 88.43 159.82 88.71 160.2 89.07C160.6 89.41 160.91 89.82 161.13 90.3V82.05H163.11H163.41V82.26C163.29 82.38 163.21 82.51 163.17 82.65C163.15 82.79 163.14 83.03 163.14 83.37L163.17 99.87C163.17 100.23 163.18 100.59 163.2 100.95C163.24 101.29 163.33 101.64 163.47 102H161.34C161.24 101.76 161.17 101.52 161.13 101.28C161.09 101.04 161.06 100.81 161.04 100.59C161.04 100.35 161.04 100.11 161.04 99.87C160.76 100.35 160.42 100.78 160.02 101.16C159.62 101.52 159.17 101.8 158.67 102C158.17 102.2 157.62 102.3 157.02 102.3ZM157.35 100.41C158.01 100.41 158.57 100.28 159.03 100.02C159.49 99.74 159.86 99.36 160.14 98.88C160.42 98.38 160.62 97.81 160.74 97.17C160.88 96.51 160.95 95.81 160.95 95.07C160.95 94.05 160.82 93.14 160.56 92.34C160.3 91.52 159.89 90.88 159.33 90.42C158.77 89.94 158.05 89.7 157.17 89.7C156.57 89.7 156.03 89.82 155.55 90.06C155.09 90.28 154.7 90.61 154.38 91.05C154.08 91.49 153.85 92.02 153.69 92.64C153.53 93.24 153.45 93.92 153.45 94.68C153.45 95.82 153.6 96.82 153.9 97.68C154.2 98.54 154.64 99.21 155.22 99.69C155.8 100.17 156.51 100.41 157.35 100.41ZM173.16 102.3C172.16 102.3 171.25 102.15 170.43 101.85C169.61 101.53 168.9 101.07 168.3 100.47C167.72 99.87 167.27 99.13 166.95 98.25C166.63 97.35 166.47 96.33 166.47 95.19C166.47 94.03 166.63 93 166.95 92.1C167.29 91.2 167.74 90.45 168.3 89.85C168.88 89.23 169.55 88.76 170.31 88.44C171.09 88.12 171.91 87.96 172.77 87.96C173.55 87.96 174.28 88.09 174.96 88.35C175.64 88.61 176.23 89.01 176.73 89.55C177.23 90.07 177.62 90.74 177.9 91.56C178.2 92.38 178.35 93.35 178.35 94.47C178.35 94.63 178.34 94.8 178.32 94.98C178.32 95.14 178.31 95.3 178.29 95.46H168.54C168.58 96.34 168.73 97.11 168.99 97.77C169.25 98.41 169.59 98.94 170.01 99.36C170.43 99.76 170.91 100.06 171.45 100.26C172.01 100.46 172.6 100.56 173.22 100.56C173.7 100.56 174.15 100.51 174.57 100.41C174.99 100.29 175.38 100.12 175.74 99.9C176.12 99.66 176.46 99.37 176.76 99.03L177.96 100.2C177.58 100.66 177.14 101.05 176.64 101.37C176.16 101.69 175.63 101.92 175.05 102.06C174.47 102.22 173.84 102.3 173.16 102.3ZM168.63 93.78H176.16C176.16 93.14 176.07 92.57 175.89 92.07C175.73 91.55 175.49 91.11 175.17 90.75C174.87 90.37 174.5 90.09 174.06 89.91C173.64 89.71 173.16 89.61 172.62 89.61C172.14 89.61 171.68 89.69 171.24 89.85C170.82 90.01 170.43 90.27 170.07 90.63C169.71 90.97 169.4 91.4 169.14 91.92C168.9 92.44 168.73 93.06 168.63 93.78ZM188.97 102.21C188.09 102.21 187.37 102.06 186.81 101.76C186.25 101.46 185.82 101 185.52 100.38C185.22 99.74 185.02 98.94 184.92 97.98C184.84 97.02 184.82 95.88 184.86 94.56L185.22 84.78L187.47 84.51L187.77 84.48L187.8 84.69C187.7 84.83 187.61 84.97 187.53 85.11C187.47 85.25 187.42 85.49 187.38 85.83L187.11 89.22L187.2 89.76L186.99 94.71C186.93 96.23 186.97 97.41 187.11 98.25C187.25 99.07 187.5 99.64 187.86 99.96C188.22 100.26 188.7 100.41 189.3 100.41C189.96 100.41 190.54 100.28 191.04 100.02C191.56 99.76 192.1 99.43 192.66 99.03L193.32 100.74C192.64 101.24 191.94 101.61 191.22 101.85C190.5 102.09 189.75 102.21 188.97 102.21ZM182.1 88.29H191.97V90.06H182.1V88.29ZM201.33 102.33C199.77 102.33 198.57 101.98 197.73 101.28C196.89 100.56 196.47 99.65 196.47 98.55C196.47 97.81 196.65 97.15 197.01 96.57C197.37 95.97 197.86 95.47 198.48 95.07C199.12 94.65 199.86 94.33 200.7 94.11C201.54 93.89 202.43 93.78 203.37 93.78C203.71 93.78 204.05 93.79 204.39 93.81C204.75 93.81 205.12 93.83 205.5 93.87C205.9 93.89 206.31 93.93 206.73 93.99L206.79 95.64C206.43 95.58 206.06 95.54 205.68 95.52C205.32 95.48 204.96 95.45 204.6 95.43C204.24 95.41 203.89 95.4 203.55 95.4C202.83 95.4 202.17 95.46 201.57 95.58C200.97 95.7 200.45 95.88 200.01 96.12C199.57 96.36 199.23 96.67 198.99 97.05C198.75 97.43 198.63 97.89 198.63 98.43C198.63 98.85 198.7 99.21 198.84 99.51C199 99.79 199.21 100.02 199.47 100.2C199.73 100.36 200.03 100.48 200.37 100.56C200.73 100.64 201.12 100.68 201.54 100.68C202.32 100.68 203.01 100.56 203.61 100.32C204.23 100.06 204.75 99.69 205.17 99.21C205.61 98.73 205.94 98.14 206.16 97.44C206.38 96.74 206.49 95.94 206.49 95.04C206.49 93.68 206.33 92.62 206.01 91.86C205.69 91.1 205.21 90.56 204.57 90.24C203.95 89.92 203.15 89.76 202.17 89.76C201.51 89.76 200.86 89.89 200.22 90.15C199.58 90.39 199 90.77 198.48 91.29L197.43 89.91C198.07 89.27 198.81 88.79 199.65 88.47C200.49 88.15 201.38 87.99 202.32 87.99C203.22 87.99 204.04 88.1 204.78 88.32C205.52 88.54 206.15 88.91 206.67 89.43C207.21 89.93 207.62 90.61 207.9 91.47C208.2 92.33 208.35 93.41 208.35 94.71V102H206.01V99.9C205.75 100.4 205.43 100.81 205.05 101.13C204.69 101.45 204.3 101.7 203.88 101.88C203.46 102.04 203.03 102.15 202.59 102.21C202.15 102.29 201.73 102.33 201.33 102.33ZM213 102V100.26H216.51V90.03H213.18V88.29H218.67V100.26H221.88V102H213ZM217.47 85.41C217.05 85.41 216.69 85.26 216.39 84.96C216.09 84.66 215.94 84.3 215.94 83.88C215.94 83.44 216.08 83.07 216.36 82.77C216.66 82.47 217.03 82.32 217.47 82.32C217.89 82.32 218.25 82.48 218.55 82.8C218.87 83.1 219.03 83.46 219.03 83.88C219.03 84.3 218.87 84.66 218.55 84.96C218.25 85.26 217.89 85.41 217.47 85.41ZM227.37 102V100.26H231.42V83.79H227.55V82.05H233.61V100.26H237.63V102H227.37ZM247.53 102.3C246.77 102.3 246.04 102.22 245.34 102.06C244.66 101.9 244.01 101.66 243.39 101.34C242.79 101.02 242.23 100.62 241.71 100.14L242.91 98.1L243.09 97.83L243.27 97.95C243.31 98.11 243.35 98.28 243.39 98.46C243.45 98.62 243.59 98.82 243.81 99.06C244.23 99.48 244.73 99.83 245.31 100.11C245.91 100.37 246.67 100.5 247.59 100.5C248.33 100.5 248.95 100.41 249.45 100.23C249.97 100.05 250.37 99.8 250.65 99.48C250.93 99.14 251.07 98.75 251.07 98.31C251.07 98.01 251.01 97.75 250.89 97.53C250.77 97.29 250.57 97.07 250.29 96.87C250.03 96.67 249.68 96.47 249.24 96.27C248.8 96.07 248.26 95.87 247.62 95.67C246.58 95.37 245.67 95.02 244.89 94.62C244.11 94.22 243.51 93.76 243.09 93.24C242.67 92.7 242.46 92.09 242.46 91.41C242.46 90.71 242.65 90.11 243.03 89.61C243.41 89.09 243.97 88.69 244.71 88.41C245.47 88.11 246.4 87.96 247.5 87.96C248.14 87.96 248.72 88.01 249.24 88.11C249.76 88.19 250.24 88.32 250.68 88.5C251.12 88.68 251.52 88.91 251.88 89.19C252.26 89.45 252.62 89.76 252.96 90.12L251.73 91.62L251.52 91.86L251.37 91.71C251.35 91.55 251.3 91.4 251.22 91.26C251.16 91.1 251.02 90.91 250.8 90.69C250.34 90.33 249.82 90.06 249.24 89.88C248.66 89.68 248.1 89.58 247.56 89.58C246.76 89.58 246.07 89.72 245.49 90C244.91 90.28 244.62 90.71 244.62 91.29C244.62 91.59 244.72 91.89 244.92 92.19C245.14 92.47 245.53 92.76 246.09 93.06C246.65 93.34 247.45 93.63 248.49 93.93C249.63 94.29 250.54 94.66 251.22 95.04C251.92 95.4 252.42 95.82 252.72 96.3C253.04 96.78 253.2 97.35 253.2 98.01C253.2 98.77 252.99 99.48 252.57 100.14C252.17 100.8 251.55 101.33 250.71 101.73C249.87 102.11 248.81 102.3 247.53 102.3ZM277.5 102.24C276.26 102.24 275.16 101.94 274.2 101.34C273.26 100.72 272.52 99.88 271.98 98.82C271.44 97.74 271.17 96.51 271.17 95.13C271.17 93.73 271.44 92.5 271.98 91.44C272.52 90.36 273.26 89.52 274.2 88.92C275.16 88.3 276.26 87.99 277.5 87.99C278.74 87.99 279.83 88.3 280.77 88.92C281.73 89.52 282.48 90.36 283.02 91.44C283.56 92.5 283.83 93.73 283.83 95.13C283.83 96.51 283.56 97.74 283.02 98.82C282.48 99.88 281.73 100.72 280.77 101.34C279.83 101.94 278.74 102.24 277.5 102.24ZM277.5 100.44C278.3 100.44 279 100.21 279.6 99.75C280.2 99.29 280.67 98.66 281.01 97.86C281.37 97.06 281.55 96.14 281.55 95.1C281.55 94.06 281.37 93.14 281.01 92.34C280.67 91.54 280.2 90.92 279.6 90.48C279 90.02 278.3 89.79 277.5 89.79C276.72 89.79 276.02 90.02 275.4 90.48C274.8 90.92 274.32 91.54 273.96 92.34C273.62 93.14 273.45 94.06 273.45 95.1C273.45 96.14 273.62 97.06 273.96 97.86C274.32 98.66 274.8 99.29 275.4 99.75C276.02 100.21 276.72 100.44 277.5 100.44ZM289.86 90H286.89V88.29H289.86V87.15C289.86 85.93 290.07 84.93 290.49 84.15C290.93 83.37 291.53 82.8 292.29 82.44C293.05 82.06 293.92 81.87 294.9 81.87C295.76 81.87 296.56 82.03 297.3 82.35C298.06 82.65 298.69 83.12 299.19 83.76L298.05 85.35L297.87 85.59L297.69 85.47C297.67 85.31 297.63 85.15 297.57 84.99C297.51 84.83 297.37 84.63 297.15 84.39C296.83 84.11 296.51 83.91 296.19 83.79C295.87 83.67 295.46 83.61 294.96 83.61C294.38 83.61 293.86 83.73 293.4 83.97C292.94 84.19 292.58 84.56 292.32 85.08C292.06 85.58 291.93 86.27 291.93 87.15V88.29H296.43V90H291.93V102H289.86V90ZM323.97 102.21C323.09 102.21 322.37 102.06 321.81 101.76C321.25 101.46 320.82 101 320.52 100.38C320.22 99.74 320.02 98.94 319.92 97.98C319.84 97.02 319.82 95.88 319.86 94.56L320.22 84.78L322.47 84.51L322.77 84.48L322.8 84.69C322.7 84.83 322.61 84.97 322.53 85.11C322.47 85.25 322.42 85.49 322.38 85.83L322.11 89.22L322.2 89.76L321.99 94.71C321.93 96.23 321.97 97.41 322.11 98.25C322.25 99.07 322.5 99.64 322.86 99.96C323.22 100.26 323.7 100.41 324.3 100.41C324.96 100.41 325.54 100.28 326.04 100.02C326.56 99.76 327.1 99.43 327.66 99.03L328.32 100.74C327.64 101.24 326.94 101.61 326.22 101.85C325.5 102.09 324.75 102.21 323.97 102.21ZM317.1 88.29H326.97V90.06H317.1V88.29ZM332.19 82.05H334.26H334.56V82.26C334.44 82.38 334.36 82.51 334.32 82.65C334.3 82.79 334.29 83.03 334.29 83.37V90.72C334.65 90.16 335.07 89.68 335.55 89.28C336.05 88.86 336.57 88.54 337.11 88.32C337.67 88.08 338.23 87.96 338.79 87.96C339.61 87.96 340.33 88.15 340.95 88.53C341.59 88.91 342.08 89.52 342.42 90.36C342.78 91.2 342.96 92.31 342.96 93.69V102H340.86V93.75C340.86 92.79 340.75 92.03 340.53 91.47C340.31 90.89 340.01 90.48 339.63 90.24C339.25 89.98 338.82 89.85 338.34 89.85C337.98 89.85 337.61 89.91 337.23 90.03C336.85 90.15 336.48 90.33 336.12 90.57C335.78 90.81 335.47 91.11 335.19 91.47C334.91 91.81 334.69 92.2 334.53 92.64C334.37 93.08 334.29 93.57 334.29 94.11V102H332.19V82.05ZM353.16 102.3C352.16 102.3 351.25 102.15 350.43 101.85C349.61 101.53 348.9 101.07 348.3 100.47C347.72 99.87 347.27 99.13 346.95 98.25C346.63 97.35 346.47 96.33 346.47 95.19C346.47 94.03 346.63 93 346.95 92.1C347.29 91.2 347.74 90.45 348.3 89.85C348.88 89.23 349.55 88.76 350.31 88.44C351.09 88.12 351.91 87.96 352.77 87.96C353.55 87.96 354.28 88.09 354.96 88.35C355.64 88.61 356.23 89.01 356.73 89.55C357.23 90.07 357.62 90.74 357.9 91.56C358.2 92.38 358.35 93.35 358.35 94.47C358.35 94.63 358.34 94.8 358.32 94.98C358.32 95.14 358.31 95.3 358.29 95.46H348.54C348.58 96.34 348.73 97.11 348.99 97.77C349.25 98.41 349.59 98.94 350.01 99.36C350.43 99.76 350.91 100.06 351.45 100.26C352.01 100.46 352.6 100.56 353.22 100.56C353.7 100.56 354.15 100.51 354.57 100.41C354.99 100.29 355.38 100.12 355.74 99.9C356.12 99.66 356.46 99.37 356.76 99.03L357.96 100.2C357.58 100.66 357.14 101.05 356.64 101.37C356.16 101.69 355.63 101.92 355.05 102.06C354.47 102.22 353.84 102.3 353.16 102.3ZM348.63 93.78H356.16C356.16 93.14 356.07 92.57 355.89 92.07C355.73 91.55 355.49 91.11 355.17 90.75C354.87 90.37 354.5 90.09 354.06 89.91C353.64 89.71 353.16 89.61 352.62 89.61C352.14 89.61 351.68 89.69 351.24 89.85C350.82 90.01 350.43 90.27 350.07 90.63C349.71 90.97 349.4 91.4 349.14 91.92C348.9 92.44 348.73 93.06 348.63 93.78ZM383.55 102.33C382.55 102.33 381.63 102.15 380.79 101.79C379.95 101.43 379.22 100.93 378.6 100.29C378 99.65 377.53 98.9 377.19 98.04C376.85 97.16 376.68 96.2 376.68 95.16C376.68 94.14 376.85 93.2 377.19 92.34C377.53 91.46 378 90.7 378.6 90.06C379.22 89.42 379.95 88.92 380.79 88.56C381.63 88.2 382.54 88.02 383.52 88.02C384.64 88.02 385.64 88.25 386.52 88.71C387.42 89.15 388.15 89.77 388.71 90.57L387.36 91.89L387.15 92.1L387 91.95C387 91.79 386.96 91.64 386.88 91.5C386.82 91.36 386.67 91.17 386.43 90.93C385.99 90.53 385.52 90.25 385.02 90.09C384.52 89.93 383.94 89.85 383.28 89.85C382.7 89.85 382.15 89.97 381.63 90.21C381.11 90.45 380.64 90.8 380.22 91.26C379.82 91.7 379.5 92.24 379.26 92.88C379.02 93.52 378.9 94.23 378.9 95.01C378.9 95.79 379.02 96.51 379.26 97.17C379.5 97.81 379.83 98.37 380.25 98.85C380.67 99.33 381.17 99.71 381.75 99.99C382.35 100.25 382.99 100.38 383.67 100.38C384.13 100.38 384.57 100.32 384.99 100.2C385.41 100.06 385.81 99.87 386.19 99.63C386.57 99.37 386.92 99.06 387.24 98.7L388.5 100.17C387.82 100.89 387.06 101.43 386.22 101.79C385.4 102.15 384.51 102.33 383.55 102.33ZM398.16 102.3C397.16 102.3 396.25 102.15 395.43 101.85C394.61 101.53 393.9 101.07 393.3 100.47C392.72 99.87 392.27 99.13 391.95 98.25C391.63 97.35 391.47 96.33 391.47 95.19C391.47 94.03 391.63 93 391.95 92.1C392.29 91.2 392.74 90.45 393.3 89.85C393.88 89.23 394.55 88.76 395.31 88.44C396.09 88.12 396.91 87.96 397.77 87.96C398.55 87.96 399.28 88.09 399.96 88.35C400.64 88.61 401.23 89.01 401.73 89.55C402.23 90.07 402.62 90.74 402.9 91.56C403.2 92.38 403.35 93.35 403.35 94.47C403.35 94.63 403.34 94.8 403.32 94.98C403.32 95.14 403.31 95.3 403.29 95.46H393.54C393.58 96.34 393.73 97.11 393.99 97.77C394.25 98.41 394.59 98.94 395.01 99.36C395.43 99.76 395.91 100.06 396.45 100.26C397.01 100.46 397.6 100.56 398.22 100.56C398.7 100.56 399.15 100.51 399.57 100.41C399.99 100.29 400.38 100.12 400.74 99.9C401.12 99.66 401.46 99.37 401.76 99.03L402.96 100.2C402.58 100.66 402.14 101.05 401.64 101.37C401.16 101.69 400.63 101.92 400.05 102.06C399.47 102.22 398.84 102.3 398.16 102.3ZM393.63 93.78H401.16C401.16 93.14 401.07 92.57 400.89 92.07C400.73 91.55 400.49 91.11 400.17 90.75C399.87 90.37 399.5 90.09 399.06 89.91C398.64 89.71 398.16 89.61 397.62 89.61C397.14 89.61 396.68 89.69 396.24 89.85C395.82 90.01 395.43 90.27 395.07 90.63C394.71 90.97 394.4 91.4 394.14 91.92C393.9 92.44 393.73 93.06 393.63 93.78ZM408.57 88.29H410.82L410.73 92.28L410.46 91.83C410.58 91.21 410.79 90.66 411.09 90.18C411.39 89.7 411.75 89.3 412.17 88.98C412.59 88.64 413.05 88.39 413.55 88.23C414.05 88.05 414.57 87.96 415.11 87.96C415.83 87.96 416.49 88.09 417.09 88.35C417.71 88.59 418.26 88.96 418.74 89.46L417.78 91.14L417.66 91.41L417.45 91.29C417.41 91.13 417.35 90.98 417.27 90.84C417.19 90.7 417.02 90.53 416.76 90.33C416.44 90.13 416.14 90 415.86 89.94C415.6 89.86 415.3 89.82 414.96 89.82C414.46 89.82 413.96 89.92 413.46 90.12C412.96 90.3 412.5 90.59 412.08 90.99C411.68 91.39 411.36 91.9 411.12 92.52C410.88 93.14 410.76 93.88 410.76 94.74V102.03H408.57V88.29ZM428.97 102.21C428.09 102.21 427.37 102.06 426.81 101.76C426.25 101.46 425.82 101 425.52 100.38C425.22 99.74 425.02 98.94 424.92 97.98C424.84 97.02 424.82 95.88 424.86 94.56L425.22 84.78L427.47 84.51L427.77 84.48L427.8 84.69C427.7 84.83 427.61 84.97 427.53 85.11C427.47 85.25 427.42 85.49 427.38 85.83L427.11 89.22L427.2 89.76L426.99 94.71C426.93 96.23 426.97 97.41 427.11 98.25C427.25 99.07 427.5 99.64 427.86 99.96C428.22 100.26 428.7 100.41 429.3 100.41C429.96 100.41 430.54 100.28 431.04 100.02C431.56 99.76 432.1 99.43 432.66 99.03L433.32 100.74C432.64 101.24 431.94 101.61 431.22 101.85C430.5 102.09 429.75 102.21 428.97 102.21ZM422.1 88.29H431.97V90.06H422.1V88.29ZM438 102V100.26H441.51V90.03H438.18V88.29H443.67V100.26H446.88V102H438ZM442.47 85.41C442.05 85.41 441.69 85.26 441.39 84.96C441.09 84.66 440.94 84.3 440.94 83.88C440.94 83.44 441.08 83.07 441.36 82.77C441.66 82.47 442.03 82.32 442.47 82.32C442.89 82.32 443.25 82.48 443.55 82.8C443.87 83.1 444.03 83.46 444.03 83.88C444.03 84.3 443.87 84.66 443.55 84.96C443.25 85.26 442.89 85.41 442.47 85.41ZM454.86 90H451.89V88.29H454.86V87.15C454.86 85.93 455.07 84.93 455.49 84.15C455.93 83.37 456.53 82.8 457.29 82.44C458.05 82.06 458.92 81.87 459.9 81.87C460.76 81.87 461.56 82.03 462.3 82.35C463.06 82.65 463.69 83.12 464.19 83.76L463.05 85.35L462.87 85.59L462.69 85.47C462.67 85.31 462.63 85.15 462.57 84.99C462.51 84.83 462.37 84.63 462.15 84.39C461.83 84.11 461.51 83.91 461.19 83.79C460.87 83.67 460.46 83.61 459.96 83.61C459.38 83.61 458.86 83.73 458.4 83.97C457.94 84.19 457.58 84.56 457.32 85.08C457.06 85.58 456.93 86.27 456.93 87.15V88.29H461.43V90H456.93V102H454.86V90ZM468 102V100.26H471.51V90.03H468.18V88.29H473.67V100.26H476.88V102H468ZM472.47 85.41C472.05 85.41 471.69 85.26 471.39 84.96C471.09 84.66 470.94 84.3 470.94 83.88C470.94 83.44 471.08 83.07 471.36 82.77C471.66 82.47 472.03 82.32 472.47 82.32C472.89 82.32 473.25 82.48 473.55 82.8C473.87 83.1 474.03 83.46 474.03 83.88C474.03 84.3 473.87 84.66 473.55 84.96C473.25 85.26 472.89 85.41 472.47 85.41ZM488.55 102.33C487.55 102.33 486.63 102.15 485.79 101.79C484.95 101.43 484.22 100.93 483.6 100.29C483 99.65 482.53 98.9 482.19 98.04C481.85 97.16 481.68 96.2 481.68 95.16C481.68 94.14 481.85 93.2 482.19 92.34C482.53 91.46 483 90.7 483.6 90.06C484.22 89.42 484.95 88.92 485.79 88.56C486.63 88.2 487.54 88.02 488.52 88.02C489.64 88.02 490.64 88.25 491.52 88.71C492.42 89.15 493.15 89.77 493.71 90.57L492.36 91.89L492.15 92.1L492 91.95C492 91.79 491.96 91.64 491.88 91.5C491.82 91.36 491.67 91.17 491.43 90.93C490.99 90.53 490.52 90.25 490.02 90.09C489.52 89.93 488.94 89.85 488.28 89.85C487.7 89.85 487.15 89.97 486.63 90.21C486.11 90.45 485.64 90.8 485.22 91.26C484.82 91.7 484.5 92.24 484.26 92.88C484.02 93.52 483.9 94.23 483.9 95.01C483.9 95.79 484.02 96.51 484.26 97.17C484.5 97.81 484.83 98.37 485.25 98.85C485.67 99.33 486.17 99.71 486.75 99.99C487.35 100.25 487.99 100.38 488.67 100.38C489.13 100.38 489.57 100.32 489.99 100.2C490.41 100.06 490.81 99.87 491.19 99.63C491.57 99.37 491.92 99.06 492.24 98.7L493.5 100.17C492.82 100.89 492.06 101.43 491.22 101.79C490.4 102.15 489.51 102.33 488.55 102.33ZM501.33 102.33C499.77 102.33 498.57 101.98 497.73 101.28C496.89 100.56 496.47 99.65 496.47 98.55C496.47 97.81 496.65 97.15 497.01 96.57C497.37 95.97 497.86 95.47 498.48 95.07C499.12 94.65 499.86 94.33 500.7 94.11C501.54 93.89 502.43 93.78 503.37 93.78C503.71 93.78 504.05 93.79 504.39 93.81C504.75 93.81 505.12 93.83 505.5 93.87C505.9 93.89 506.31 93.93 506.73 93.99L506.79 95.64C506.43 95.58 506.06 95.54 505.68 95.52C505.32 95.48 504.96 95.45 504.6 95.43C504.24 95.41 503.89 95.4 503.55 95.4C502.83 95.4 502.17 95.46 501.57 95.58C500.97 95.7 500.45 95.88 500.01 96.12C499.57 96.36 499.23 96.67 498.99 97.05C498.75 97.43 498.63 97.89 498.63 98.43C498.63 98.85 498.7 99.21 498.84 99.51C499 99.79 499.21 100.02 499.47 100.2C499.73 100.36 500.03 100.48 500.37 100.56C500.73 100.64 501.12 100.68 501.54 100.68C502.32 100.68 503.01 100.56 503.61 100.32C504.23 100.06 504.75 99.69 505.17 99.21C505.61 98.73 505.94 98.14 506.16 97.44C506.38 96.74 506.49 95.94 506.49 95.04C506.49 93.68 506.33 92.62 506.01 91.86C505.69 91.1 505.21 90.56 504.57 90.24C503.95 89.92 503.15 89.76 502.17 89.76C501.51 89.76 500.86 89.89 500.22 90.15C499.58 90.39 499 90.77 498.48 91.29L497.43 89.91C498.07 89.27 498.81 88.79 499.65 88.47C500.49 88.15 501.38 87.99 502.32 87.99C503.22 87.99 504.04 88.1 504.78 88.32C505.52 88.54 506.15 88.91 506.67 89.43C507.21 89.93 507.62 90.61 507.9 91.47C508.2 92.33 508.35 93.41 508.35 94.71V102H506.01V99.9C505.75 100.4 505.43 100.81 505.05 101.13C504.69 101.45 504.3 101.7 503.88 101.88C503.46 102.04 503.03 102.15 502.59 102.21C502.15 102.29 501.73 102.33 501.33 102.33ZM518.97 102.21C518.09 102.21 517.37 102.06 516.81 101.76C516.25 101.46 515.82 101 515.52 100.38C515.22 99.74 515.02 98.94 514.92 97.98C514.84 97.02 514.82 95.88 514.86 94.56L515.22 84.78L517.47 84.51L517.77 84.48L517.8 84.69C517.7 84.83 517.61 84.97 517.53 85.11C517.47 85.25 517.42 85.49 517.38 85.83L517.11 89.22L517.2 89.76L516.99 94.71C516.93 96.23 516.97 97.41 517.11 98.25C517.25 99.07 517.5 99.64 517.86 99.96C518.22 100.26 518.7 100.41 519.3 100.41C519.96 100.41 520.54 100.28 521.04 100.02C521.56 99.76 522.1 99.43 522.66 99.03L523.32 100.74C522.64 101.24 521.94 101.61 521.22 101.85C520.5 102.09 519.75 102.21 518.97 102.21ZM512.1 88.29H521.97V90.06H512.1V88.29ZM533.16 102.3C532.16 102.3 531.25 102.15 530.43 101.85C529.61 101.53 528.9 101.07 528.3 100.47C527.72 99.87 527.27 99.13 526.95 98.25C526.63 97.35 526.47 96.33 526.47 95.19C526.47 94.03 526.63 93 526.95 92.1C527.29 91.2 527.74 90.45 528.3 89.85C528.88 89.23 529.55 88.76 530.31 88.44C531.09 88.12 531.91 87.96 532.77 87.96C533.55 87.96 534.28 88.09 534.96 88.35C535.64 88.61 536.23 89.01 536.73 89.55C537.23 90.07 537.62 90.74 537.9 91.56C538.2 92.38 538.35 93.35 538.35 94.47C538.35 94.63 538.34 94.8 538.32 94.98C538.32 95.14 538.31 95.3 538.29 95.46H528.54C528.58 96.34 528.73 97.11 528.99 97.77C529.25 98.41 529.59 98.94 530.01 99.36C530.43 99.76 530.91 100.06 531.45 100.26C532.01 100.46 532.6 100.56 533.22 100.56C533.7 100.56 534.15 100.51 534.57 100.41C534.99 100.29 535.38 100.12 535.74 99.9C536.12 99.66 536.46 99.37 536.76 99.03L537.96 100.2C537.58 100.66 537.14 101.05 536.64 101.37C536.16 101.69 535.63 101.92 535.05 102.06C534.47 102.22 533.84 102.3 533.16 102.3ZM528.63 93.78H536.16C536.16 93.14 536.07 92.57 535.89 92.07C535.73 91.55 535.49 91.11 535.17 90.75C534.87 90.37 534.5 90.09 534.06 89.91C533.64 89.71 533.16 89.61 532.62 89.61C532.14 89.61 531.68 89.69 531.24 89.85C530.82 90.01 530.43 90.27 530.07 90.63C529.71 90.97 529.4 91.4 529.14 91.92C528.9 92.44 528.73 93.06 528.63 93.78Z" fill="white"/>
</svg>
