<svg width="675" height="107" viewBox="0 0 675 107" fill="none" xmlns="http://www.w3.org/2000/svg">
<path d="M273.73 12.6364L282.519 40.2642H282.857L291.663 12.6364H300.186L287.651 49H277.743L265.19 12.6364H273.73ZM313.774 49.5327C310.968 49.5327 308.553 48.9645 306.529 47.8281C304.517 46.6799 302.966 45.0582 301.877 42.9631C300.788 40.8561 300.244 38.3643 300.244 35.4879C300.244 32.6825 300.788 30.2204 301.877 28.1016C302.966 25.9827 304.499 24.3314 306.476 23.1477C308.465 21.964 310.797 21.3722 313.472 21.3722C315.271 21.3722 316.946 21.6622 318.497 22.2422C320.059 22.8104 321.42 23.6686 322.58 24.8168C323.752 25.965 324.664 27.4091 325.315 29.1491C325.966 30.8774 326.291 32.9015 326.291 35.2216V37.299H303.262V32.6115H319.171C319.171 31.5225 318.935 30.5578 318.461 29.7173C317.988 28.8769 317.331 28.2199 316.49 27.7464C315.662 27.2611 314.697 27.0185 313.596 27.0185C312.448 27.0185 311.43 27.2848 310.542 27.8175C309.666 28.3383 308.98 29.0426 308.482 29.9304C307.985 30.8063 307.731 31.7829 307.719 32.8601V37.3168C307.719 38.6662 307.968 39.8321 308.465 40.8146C308.974 41.7971 309.69 42.5547 310.613 43.0874C311.536 43.62 312.631 43.8864 313.898 43.8864C314.738 43.8864 315.508 43.768 316.206 43.5312C316.905 43.2945 317.502 42.9394 317.999 42.4659C318.497 41.9924 318.875 41.4124 319.136 40.7259L326.132 41.1875C325.776 42.8684 325.048 44.3362 323.948 45.5909C322.859 46.8338 321.45 47.8045 319.722 48.5028C318.005 49.1894 316.023 49.5327 313.774 49.5327ZM331.227 49V21.7273H338.561V26.4858H338.845C339.342 24.7931 340.176 23.5147 341.348 22.6506C342.52 21.7746 343.869 21.3366 345.396 21.3366C345.775 21.3366 346.184 21.3603 346.622 21.4077C347.06 21.455 347.444 21.5201 347.776 21.603V28.3146C347.421 28.2081 346.929 28.1134 346.302 28.0305C345.675 27.9477 345.101 27.9062 344.58 27.9062C343.467 27.9062 342.473 28.1489 341.597 28.6342C340.733 29.1077 340.046 29.7706 339.537 30.6229C339.04 31.4751 338.791 32.4576 338.791 33.5703V49H331.227ZM351.686 49V21.7273H359.25V49H351.686ZM355.486 18.2116C354.362 18.2116 353.397 17.8388 352.592 17.093C351.799 16.3355 351.402 15.4299 351.402 14.3764C351.402 13.3348 351.799 12.4411 352.592 11.6953C353.397 10.9377 354.362 10.5589 355.486 10.5589C356.611 10.5589 357.569 10.9377 358.363 11.6953C359.167 12.4411 359.57 13.3348 359.57 14.3764C359.57 15.4299 359.167 16.3355 358.363 17.093C357.569 17.8388 356.611 18.2116 355.486 18.2116ZM379.976 21.7273V27.4091H363.143V21.7273H379.976ZM366.996 49V19.7564C366.996 17.7796 367.381 16.1401 368.15 14.8381C368.932 13.536 369.997 12.5594 371.346 11.9084C372.696 11.2573 374.229 10.9318 375.945 10.9318C377.105 10.9318 378.165 11.0206 379.123 11.1982C380.094 11.3757 380.816 11.5355 381.29 11.6776L379.94 17.3594C379.644 17.2647 379.277 17.1759 378.839 17.093C378.413 17.0102 377.975 16.9688 377.525 16.9688C376.413 16.9688 375.637 17.2292 375.199 17.75C374.761 18.259 374.542 18.9751 374.542 19.8984V49H366.996ZM389.266 59.2273C388.308 59.2273 387.408 59.1503 386.567 58.9964C385.739 58.8544 385.052 58.6709 384.508 58.446L386.212 52.7997C387.1 53.072 387.899 53.2199 388.609 53.2436C389.331 53.2673 389.953 53.1016 390.474 52.7464C391.006 52.3913 391.438 51.7876 391.77 50.9354L392.214 49.7812L382.43 21.7273H390.385L396.031 41.7557H396.315L402.015 21.7273H410.023L399.423 51.9474C398.914 53.4152 398.221 54.6937 397.345 55.7827C396.481 56.8835 395.386 57.7299 394.06 58.3217C392.735 58.9254 391.137 59.2273 389.266 59.2273Z" fill="white"/>
<path d="M8.16 102.3C7.16 102.3 6.25 102.15 5.43 101.85C4.61 101.53 3.9 101.07 3.3 100.47C2.72 99.87 2.27 99.13 1.95 98.25C1.63 97.35 1.47 96.33 1.47 95.19C1.47 94.03 1.63 93 1.95 92.1C2.29 91.2 2.74 90.45 3.3 89.85C3.88 89.23 4.55 88.76 5.31 88.44C6.09 88.12 6.91 87.96 7.77 87.96C8.55 87.96 9.28 88.09 9.96 88.35C10.64 88.61 11.23 89.01 11.73 89.55C12.23 90.07 12.62 90.74 12.9 91.56C13.2 92.38 13.35 93.35 13.35 94.47C13.35 94.63 13.34 94.8 13.32 94.98C13.32 95.14 13.31 95.3 13.29 95.46H3.54C3.58 96.34 3.73 97.11 3.99 97.77C4.25 98.41 4.59 98.94 5.01 99.36C5.43 99.76 5.91 100.06 6.45 100.26C7.01 100.46 7.6 100.56 8.22 100.56C8.7 100.56 9.15 100.51 9.57 100.41C9.99 100.29 10.38 100.12 10.74 99.9C11.12 99.66 11.46 99.37 11.76 99.03L12.96 100.2C12.58 100.66 12.14 101.05 11.64 101.37C11.16 101.69 10.63 101.92 10.05 102.06C9.47 102.22 8.84 102.3 8.16 102.3ZM3.63 93.78H11.16C11.16 93.14 11.07 92.57 10.89 92.07C10.73 91.55 10.49 91.11 10.17 90.75C9.87 90.37 9.5 90.09 9.06 89.91C8.64 89.71 8.16 89.61 7.62 89.61C7.14 89.61 6.68 89.69 6.24 89.85C5.82 90.01 5.43 90.27 5.07 90.63C4.71 90.97 4.4 91.4 4.14 91.92C3.9 92.44 3.73 93.06 3.63 93.78ZM17.16 102V88.29H19.26V90.72C19.62 90.16 20.04 89.68 20.52 89.28C21 88.86 21.53 88.54 22.11 88.32C22.69 88.08 23.29 87.96 23.91 87.96C24.67 87.96 25.35 88.15 25.95 88.53C26.55 88.91 27.03 89.52 27.39 90.36C27.75 91.2 27.93 92.31 27.93 93.69V102H25.83V93.75C25.83 92.79 25.72 92.03 25.5 91.47C25.28 90.89 24.98 90.48 24.6 90.24C24.22 89.98 23.79 89.85 23.31 89.85C22.85 89.85 22.38 89.95 21.9 90.15C21.44 90.35 21.01 90.64 20.61 91.02C20.21 91.38 19.88 91.82 19.62 92.34C19.38 92.86 19.26 93.45 19.26 94.11V102H17.16ZM38.97 102.21C38.09 102.21 37.37 102.06 36.81 101.76C36.25 101.46 35.82 101 35.52 100.38C35.22 99.74 35.02 98.94 34.92 97.98C34.84 97.02 34.82 95.88 34.86 94.56L35.22 84.78L37.47 84.51L37.77 84.48L37.8 84.69C37.7 84.83 37.61 84.97 37.53 85.11C37.47 85.25 37.42 85.49 37.38 85.83L37.11 89.22L37.2 89.76L36.99 94.71C36.93 96.23 36.97 97.41 37.11 98.25C37.25 99.07 37.5 99.64 37.86 99.96C38.22 100.26 38.7 100.41 39.3 100.41C39.96 100.41 40.54 100.28 41.04 100.02C41.56 99.76 42.1 99.43 42.66 99.03L43.32 100.74C42.64 101.24 41.94 101.61 41.22 101.85C40.5 102.09 39.75 102.21 38.97 102.21ZM32.1 88.29H41.97V90.06H32.1V88.29ZM53.16 102.3C52.16 102.3 51.25 102.15 50.43 101.85C49.61 101.53 48.9 101.07 48.3 100.47C47.72 99.87 47.27 99.13 46.95 98.25C46.63 97.35 46.47 96.33 46.47 95.19C46.47 94.03 46.63 93 46.95 92.1C47.29 91.2 47.74 90.45 48.3 89.85C48.88 89.23 49.55 88.76 50.31 88.44C51.09 88.12 51.91 87.96 52.77 87.96C53.55 87.96 54.28 88.09 54.96 88.35C55.64 88.61 56.23 89.01 56.73 89.55C57.23 90.07 57.62 90.74 57.9 91.56C58.2 92.38 58.35 93.35 58.35 94.47C58.35 94.63 58.34 94.8 58.32 94.98C58.32 95.14 58.31 95.3 58.29 95.46H48.54C48.58 96.34 48.73 97.11 48.99 97.77C49.25 98.41 49.59 98.94 50.01 99.36C50.43 99.76 50.91 100.06 51.45 100.26C52.01 100.46 52.6 100.56 53.22 100.56C53.7 100.56 54.15 100.51 54.57 100.41C54.99 100.29 55.38 100.12 55.74 99.9C56.12 99.66 56.46 99.37 56.76 99.03L57.96 100.2C57.58 100.66 57.14 101.05 56.64 101.37C56.16 101.69 55.63 101.92 55.05 102.06C54.47 102.22 53.84 102.3 53.16 102.3ZM48.63 93.78H56.16C56.16 93.14 56.07 92.57 55.89 92.07C55.73 91.55 55.49 91.11 55.17 90.75C54.87 90.37 54.5 90.09 54.06 89.91C53.64 89.71 53.16 89.61 52.62 89.61C52.14 89.61 51.68 89.69 51.24 89.85C50.82 90.01 50.43 90.27 50.07 90.63C49.71 90.97 49.4 91.4 49.14 91.92C48.9 92.44 48.73 93.06 48.63 93.78ZM63.57 88.29H65.82L65.73 92.28L65.46 91.83C65.58 91.21 65.79 90.66 66.09 90.18C66.39 89.7 66.75 89.3 67.17 88.98C67.59 88.64 68.05 88.39 68.55 88.23C69.05 88.05 69.57 87.96 70.11 87.96C70.83 87.96 71.49 88.09 72.09 88.35C72.71 88.59 73.26 88.96 73.74 89.46L72.78 91.14L72.66 91.41L72.45 91.29C72.41 91.13 72.35 90.98 72.27 90.84C72.19 90.7 72.02 90.53 71.76 90.33C71.44 90.13 71.14 90 70.86 89.94C70.6 89.86 70.3 89.82 69.96 89.82C69.46 89.82 68.96 89.92 68.46 90.12C67.96 90.3 67.5 90.59 67.08 90.99C66.68 91.39 66.36 91.9 66.12 92.52C65.88 93.14 65.76 93.88 65.76 94.74V102.03H63.57V88.29ZM98.97 102.21C98.09 102.21 97.37 102.06 96.81 101.76C96.25 101.46 95.82 101 95.52 100.38C95.22 99.74 95.02 98.94 94.92 97.98C94.84 97.02 94.82 95.88 94.86 94.56L95.22 84.78L97.47 84.51L97.77 84.48L97.8 84.69C97.7 84.83 97.61 84.97 97.53 85.11C97.47 85.25 97.42 85.49 97.38 85.83L97.11 89.22L97.2 89.76L96.99 94.71C96.93 96.23 96.97 97.41 97.11 98.25C97.25 99.07 97.5 99.64 97.86 99.96C98.22 100.26 98.7 100.41 99.3 100.41C99.96 100.41 100.54 100.28 101.04 100.02C101.56 99.76 102.1 99.43 102.66 99.03L103.32 100.74C102.64 101.24 101.94 101.61 101.22 101.85C100.5 102.09 99.75 102.21 98.97 102.21ZM92.1 88.29H101.97V90.06H92.1V88.29ZM107.19 82.05H109.26H109.56V82.26C109.44 82.38 109.36 82.51 109.32 82.65C109.3 82.79 109.29 83.03 109.29 83.37V90.72C109.65 90.16 110.07 89.68 110.55 89.28C111.05 88.86 111.57 88.54 112.11 88.32C112.67 88.08 113.23 87.96 113.79 87.96C114.61 87.96 115.33 88.15 115.95 88.53C116.59 88.91 117.08 89.52 117.42 90.36C117.78 91.2 117.96 92.31 117.96 93.69V102H115.86V93.75C115.86 92.79 115.75 92.03 115.53 91.47C115.31 90.89 115.01 90.48 114.63 90.24C114.25 89.98 113.82 89.85 113.34 89.85C112.98 89.85 112.61 89.91 112.23 90.03C111.85 90.15 111.48 90.33 111.12 90.57C110.78 90.81 110.47 91.11 110.19 91.47C109.91 91.81 109.69 92.2 109.53 92.64C109.37 93.08 109.29 93.57 109.29 94.11V102H107.19V82.05ZM128.16 102.3C127.16 102.3 126.25 102.15 125.43 101.85C124.61 101.53 123.9 101.07 123.3 100.47C122.72 99.87 122.27 99.13 121.95 98.25C121.63 97.35 121.47 96.33 121.47 95.19C121.47 94.03 121.63 93 121.95 92.1C122.29 91.2 122.74 90.45 123.3 89.85C123.88 89.23 124.55 88.76 125.31 88.44C126.09 88.12 126.91 87.96 127.77 87.96C128.55 87.96 129.28 88.09 129.96 88.35C130.64 88.61 131.23 89.01 131.73 89.55C132.23 90.07 132.62 90.74 132.9 91.56C133.2 92.38 133.35 93.35 133.35 94.47C133.35 94.63 133.34 94.8 133.32 94.98C133.32 95.14 133.31 95.3 133.29 95.46H123.54C123.58 96.34 123.73 97.11 123.99 97.77C124.25 98.41 124.59 98.94 125.01 99.36C125.43 99.76 125.91 100.06 126.45 100.26C127.01 100.46 127.6 100.56 128.22 100.56C128.7 100.56 129.15 100.51 129.57 100.41C129.99 100.29 130.38 100.12 130.74 99.9C131.12 99.66 131.46 99.37 131.76 99.03L132.96 100.2C132.58 100.66 132.14 101.05 131.64 101.37C131.16 101.69 130.63 101.92 130.05 102.06C129.47 102.22 128.84 102.3 128.16 102.3ZM123.63 93.78H131.16C131.16 93.14 131.07 92.57 130.89 92.07C130.73 91.55 130.49 91.11 130.17 90.75C129.87 90.37 129.5 90.09 129.06 89.91C128.64 89.71 128.16 89.61 127.62 89.61C127.14 89.61 126.68 89.69 126.24 89.85C125.82 90.01 125.43 90.27 125.07 90.63C124.71 90.97 124.4 91.4 124.14 91.92C123.9 92.44 123.73 93.06 123.63 93.78ZM153.57 88.29H155.82L155.73 92.28L155.46 91.83C155.58 91.21 155.79 90.66 156.09 90.18C156.39 89.7 156.75 89.3 157.17 88.98C157.59 88.64 158.05 88.39 158.55 88.23C159.05 88.05 159.57 87.96 160.11 87.96C160.83 87.96 161.49 88.09 162.09 88.35C162.71 88.59 163.26 88.96 163.74 89.46L162.78 91.14L162.66 91.41L162.45 91.29C162.41 91.13 162.35 90.98 162.27 90.84C162.19 90.7 162.02 90.53 161.76 90.33C161.44 90.13 161.14 90 160.86 89.94C160.6 89.86 160.3 89.82 159.96 89.82C159.46 89.82 158.96 89.92 158.46 90.12C157.96 90.3 157.5 90.59 157.08 90.99C156.68 91.39 156.36 91.9 156.12 92.52C155.88 93.14 155.76 93.88 155.76 94.74V102.03H153.57V88.29ZM173.16 102.3C172.16 102.3 171.25 102.15 170.43 101.85C169.61 101.53 168.9 101.07 168.3 100.47C167.72 99.87 167.27 99.13 166.95 98.25C166.63 97.35 166.47 96.33 166.47 95.19C166.47 94.03 166.63 93 166.95 92.1C167.29 91.2 167.74 90.45 168.3 89.85C168.88 89.23 169.55 88.76 170.31 88.44C171.09 88.12 171.91 87.96 172.77 87.96C173.55 87.96 174.28 88.09 174.96 88.35C175.64 88.61 176.23 89.01 176.73 89.55C177.23 90.07 177.62 90.74 177.9 91.56C178.2 92.38 178.35 93.35 178.35 94.47C178.35 94.63 178.34 94.8 178.32 94.98C178.32 95.14 178.31 95.3 178.29 95.46H168.54C168.58 96.34 168.73 97.11 168.99 97.77C169.25 98.41 169.59 98.94 170.01 99.36C170.43 99.76 170.91 100.06 171.45 100.26C172.01 100.46 172.6 100.56 173.22 100.56C173.7 100.56 174.15 100.51 174.57 100.41C174.99 100.29 175.38 100.12 175.74 99.9C176.12 99.66 176.46 99.37 176.76 99.03L177.96 100.2C177.58 100.66 177.14 101.05 176.64 101.37C176.16 101.69 175.63 101.92 175.05 102.06C174.47 102.22 173.84 102.3 173.16 102.3ZM168.63 93.78H176.16C176.16 93.14 176.07 92.57 175.89 92.07C175.73 91.55 175.49 91.11 175.17 90.75C174.87 90.37 174.5 90.09 174.06 89.91C173.64 89.71 173.16 89.61 172.62 89.61C172.14 89.61 171.68 89.69 171.24 89.85C170.82 90.01 170.43 90.27 170.07 90.63C169.71 90.97 169.4 91.4 169.14 91.92C168.9 92.44 168.73 93.06 168.63 93.78ZM184.86 90H181.89V88.29H184.86V87.15C184.86 85.93 185.07 84.93 185.49 84.15C185.93 83.37 186.53 82.8 187.29 82.44C188.05 82.06 188.92 81.87 189.9 81.87C190.76 81.87 191.56 82.03 192.3 82.35C193.06 82.65 193.69 83.12 194.19 83.76L193.05 85.35L192.87 85.59L192.69 85.47C192.67 85.31 192.63 85.15 192.57 84.99C192.51 84.83 192.37 84.63 192.15 84.39C191.83 84.11 191.51 83.91 191.19 83.79C190.87 83.67 190.46 83.61 189.96 83.61C189.38 83.61 188.86 83.73 188.4 83.97C187.94 84.19 187.58 84.56 187.32 85.08C187.06 85.58 186.93 86.27 186.93 87.15V88.29H191.43V90H186.93V102H184.86V90ZM203.16 102.3C202.16 102.3 201.25 102.15 200.43 101.85C199.61 101.53 198.9 101.07 198.3 100.47C197.72 99.87 197.27 99.13 196.95 98.25C196.63 97.35 196.47 96.33 196.47 95.19C196.47 94.03 196.63 93 196.95 92.1C197.29 91.2 197.74 90.45 198.3 89.85C198.88 89.23 199.55 88.76 200.31 88.44C201.09 88.12 201.91 87.96 202.77 87.96C203.55 87.96 204.28 88.09 204.96 88.35C205.64 88.61 206.23 89.01 206.73 89.55C207.23 90.07 207.62 90.74 207.9 91.56C208.2 92.38 208.35 93.35 208.35 94.47C208.35 94.63 208.34 94.8 208.32 94.98C208.32 95.14 208.31 95.3 208.29 95.46H198.54C198.58 96.34 198.73 97.11 198.99 97.77C199.25 98.41 199.59 98.94 200.01 99.36C200.43 99.76 200.91 100.06 201.45 100.26C202.01 100.46 202.6 100.56 203.22 100.56C203.7 100.56 204.15 100.51 204.57 100.41C204.99 100.29 205.38 100.12 205.74 99.9C206.12 99.66 206.46 99.37 206.76 99.03L207.96 100.2C207.58 100.66 207.14 101.05 206.64 101.37C206.16 101.69 205.63 101.92 205.05 102.06C204.47 102.22 203.84 102.3 203.16 102.3ZM198.63 93.78H206.16C206.16 93.14 206.07 92.57 205.89 92.07C205.73 91.55 205.49 91.11 205.17 90.75C204.87 90.37 204.5 90.09 204.06 89.91C203.64 89.71 203.16 89.61 202.62 89.61C202.14 89.61 201.68 89.69 201.24 89.85C200.82 90.01 200.43 90.27 200.07 90.63C199.71 90.97 199.4 91.4 199.14 91.92C198.9 92.44 198.73 93.06 198.63 93.78ZM213.57 88.29H215.82L215.73 92.28L215.46 91.83C215.58 91.21 215.79 90.66 216.09 90.18C216.39 89.7 216.75 89.3 217.17 88.98C217.59 88.64 218.05 88.39 218.55 88.23C219.05 88.05 219.57 87.96 220.11 87.96C220.83 87.96 221.49 88.09 222.09 88.35C222.71 88.59 223.26 88.96 223.74 89.46L222.78 91.14L222.66 91.41L222.45 91.29C222.41 91.13 222.35 90.98 222.27 90.84C222.19 90.7 222.02 90.53 221.76 90.33C221.44 90.13 221.14 90 220.86 89.94C220.6 89.86 220.3 89.82 219.96 89.82C219.46 89.82 218.96 89.92 218.46 90.12C217.96 90.3 217.5 90.59 217.08 90.99C216.68 91.39 216.36 91.9 216.12 92.52C215.88 93.14 215.76 93.88 215.76 94.74V102.03H213.57V88.29ZM233.16 102.3C232.16 102.3 231.25 102.15 230.43 101.85C229.61 101.53 228.9 101.07 228.3 100.47C227.72 99.87 227.27 99.13 226.95 98.25C226.63 97.35 226.47 96.33 226.47 95.19C226.47 94.03 226.63 93 226.95 92.1C227.29 91.2 227.74 90.45 228.3 89.85C228.88 89.23 229.55 88.76 230.31 88.44C231.09 88.12 231.91 87.96 232.77 87.96C233.55 87.96 234.28 88.09 234.96 88.35C235.64 88.61 236.23 89.01 236.73 89.55C237.23 90.07 237.62 90.74 237.9 91.56C238.2 92.38 238.35 93.35 238.35 94.47C238.35 94.63 238.34 94.8 238.32 94.98C238.32 95.14 238.31 95.3 238.29 95.46H228.54C228.58 96.34 228.73 97.11 228.99 97.77C229.25 98.41 229.59 98.94 230.01 99.36C230.43 99.76 230.91 100.06 231.45 100.26C232.01 100.46 232.6 100.56 233.22 100.56C233.7 100.56 234.15 100.51 234.57 100.41C234.99 100.29 235.38 100.12 235.74 99.9C236.12 99.66 236.46 99.37 236.76 99.03L237.96 100.2C237.58 100.66 237.14 101.05 236.64 101.37C236.16 101.69 235.63 101.92 235.05 102.06C234.47 102.22 233.84 102.3 233.16 102.3ZM228.63 93.78H236.16C236.16 93.14 236.07 92.57 235.89 92.07C235.73 91.55 235.49 91.11 235.17 90.75C234.87 90.37 234.5 90.09 234.06 89.91C233.64 89.71 233.16 89.61 232.62 89.61C232.14 89.61 231.68 89.69 231.24 89.85C230.82 90.01 230.43 90.27 230.07 90.63C229.71 90.97 229.4 91.4 229.14 91.92C228.9 92.44 228.73 93.06 228.63 93.78ZM242.16 102V88.29H244.26V90.72C244.62 90.16 245.04 89.68 245.52 89.28C246 88.86 246.53 88.54 247.11 88.32C247.69 88.08 248.29 87.96 248.91 87.96C249.67 87.96 250.35 88.15 250.95 88.53C251.55 88.91 252.03 89.52 252.39 90.36C252.75 91.2 252.93 92.31 252.93 93.69V102H250.83V93.75C250.83 92.79 250.72 92.03 250.5 91.47C250.28 90.89 249.98 90.48 249.6 90.24C249.22 89.98 248.79 89.85 248.31 89.85C247.85 89.85 247.38 89.95 246.9 90.15C246.44 90.35 246.01 90.64 245.61 91.02C245.21 91.38 244.88 91.82 244.62 92.34C244.38 92.86 244.26 93.45 244.26 94.11V102H242.16ZM263.55 102.33C262.55 102.33 261.63 102.15 260.79 101.79C259.95 101.43 259.22 100.93 258.6 100.29C258 99.65 257.53 98.9 257.19 98.04C256.85 97.16 256.68 96.2 256.68 95.16C256.68 94.14 256.85 93.2 257.19 92.34C257.53 91.46 258 90.7 258.6 90.06C259.22 89.42 259.95 88.92 260.79 88.56C261.63 88.2 262.54 88.02 263.52 88.02C264.64 88.02 265.64 88.25 266.52 88.71C267.42 89.15 268.15 89.77 268.71 90.57L267.36 91.89L267.15 92.1L267 91.95C267 91.79 266.96 91.64 266.88 91.5C266.82 91.36 266.67 91.17 266.43 90.93C265.99 90.53 265.52 90.25 265.02 90.09C264.52 89.93 263.94 89.85 263.28 89.85C262.7 89.85 262.15 89.97 261.63 90.21C261.11 90.45 260.64 90.8 260.22 91.26C259.82 91.7 259.5 92.24 259.26 92.88C259.02 93.52 258.9 94.23 258.9 95.01C258.9 95.79 259.02 96.51 259.26 97.17C259.5 97.81 259.83 98.37 260.25 98.85C260.67 99.33 261.17 99.71 261.75 99.99C262.35 100.25 262.99 100.38 263.67 100.38C264.13 100.38 264.57 100.32 264.99 100.2C265.41 100.06 265.81 99.87 266.19 99.63C266.57 99.37 266.92 99.06 267.24 98.7L268.5 100.17C267.82 100.89 267.06 101.43 266.22 101.79C265.4 102.15 264.51 102.33 263.55 102.33ZM278.16 102.3C277.16 102.3 276.25 102.15 275.43 101.85C274.61 101.53 273.9 101.07 273.3 100.47C272.72 99.87 272.27 99.13 271.95 98.25C271.63 97.35 271.47 96.33 271.47 95.19C271.47 94.03 271.63 93 271.95 92.1C272.29 91.2 272.74 90.45 273.3 89.85C273.88 89.23 274.55 88.76 275.31 88.44C276.09 88.12 276.91 87.96 277.77 87.96C278.55 87.96 279.28 88.09 279.96 88.35C280.64 88.61 281.23 89.01 281.73 89.55C282.23 90.07 282.62 90.74 282.9 91.56C283.2 92.38 283.35 93.35 283.35 94.47C283.35 94.63 283.34 94.8 283.32 94.98C283.32 95.14 283.31 95.3 283.29 95.46H273.54C273.58 96.34 273.73 97.11 273.99 97.77C274.25 98.41 274.59 98.94 275.01 99.36C275.43 99.76 275.91 100.06 276.45 100.26C277.01 100.46 277.6 100.56 278.22 100.56C278.7 100.56 279.15 100.51 279.57 100.41C279.99 100.29 280.38 100.12 280.74 99.9C281.12 99.66 281.46 99.37 281.76 99.03L282.96 100.2C282.58 100.66 282.14 101.05 281.64 101.37C281.16 101.69 280.63 101.92 280.05 102.06C279.47 102.22 278.84 102.3 278.16 102.3ZM273.63 93.78H281.16C281.16 93.14 281.07 92.57 280.89 92.07C280.73 91.55 280.49 91.11 280.17 90.75C279.87 90.37 279.5 90.09 279.06 89.91C278.64 89.71 278.16 89.61 277.62 89.61C277.14 89.61 276.68 89.69 276.24 89.85C275.82 90.01 275.43 90.27 275.07 90.63C274.71 90.97 274.4 91.4 274.14 91.92C273.9 92.44 273.73 93.06 273.63 93.78ZM302.16 102V88.29H304.26V90.72C304.62 90.16 305.04 89.68 305.52 89.28C306 88.86 306.53 88.54 307.11 88.32C307.69 88.08 308.29 87.96 308.91 87.96C309.67 87.96 310.35 88.15 310.95 88.53C311.55 88.91 312.03 89.52 312.39 90.36C312.75 91.2 312.93 92.31 312.93 93.69V102H310.83V93.75C310.83 92.79 310.72 92.03 310.5 91.47C310.28 90.89 309.98 90.48 309.6 90.24C309.22 89.98 308.79 89.85 308.31 89.85C307.85 89.85 307.38 89.95 306.9 90.15C306.44 90.35 306.01 90.64 305.61 91.02C305.21 91.38 304.88 91.82 304.62 92.34C304.38 92.86 304.26 93.45 304.26 94.11V102H302.16ZM321.63 102.33C321.09 102.33 320.58 102.25 320.1 102.09C319.62 101.93 319.18 101.69 318.78 101.37C318.4 101.03 318.07 100.61 317.79 100.11C317.51 99.61 317.29 99.01 317.13 98.31C316.99 97.61 316.92 96.82 316.92 95.94L316.95 88.29H319.05V95.94C319.05 96.8 319.13 97.53 319.29 98.13C319.45 98.73 319.67 99.21 319.95 99.57C320.25 99.93 320.59 100.19 320.97 100.35C321.35 100.51 321.75 100.59 322.17 100.59C322.65 100.59 323.11 100.5 323.55 100.32C323.99 100.12 324.38 99.83 324.72 99.45C325.08 99.07 325.36 98.58 325.56 97.98C325.76 97.38 325.86 96.67 325.86 95.85V88.29H327.96V99.87C327.96 100.23 327.97 100.59 327.99 100.95C328.03 101.29 328.12 101.64 328.26 102H326.19C326.09 101.76 326.02 101.53 325.98 101.31C325.94 101.07 325.91 100.83 325.89 100.59C325.89 100.35 325.89 100.12 325.89 99.9C325.67 100.28 325.41 100.62 325.11 100.92C324.81 101.22 324.47 101.48 324.09 101.7C323.73 101.9 323.34 102.05 322.92 102.15C322.52 102.27 322.09 102.33 321.63 102.33ZM331.14 102V88.29H333.12V89.64C333.34 89.3 333.59 89.01 333.87 88.77C334.17 88.51 334.49 88.31 334.83 88.17C335.19 88.03 335.55 87.96 335.91 87.96C336.31 87.96 336.68 88.05 337.02 88.23C337.36 88.39 337.64 88.62 337.86 88.92C338.1 89.22 338.26 89.57 338.34 89.97C338.52 89.57 338.76 89.22 339.06 88.92C339.38 88.62 339.74 88.39 340.14 88.23C340.56 88.05 340.99 87.96 341.43 87.96C341.89 87.96 342.29 88.05 342.63 88.23C342.97 88.41 343.25 88.66 343.47 88.98C343.69 89.28 343.85 89.65 343.95 90.09C344.05 90.51 344.09 90.97 344.07 91.47V102H342.09V92.28C342.09 91.44 342.03 90.83 341.91 90.45C341.81 90.07 341.66 89.83 341.46 89.73C341.26 89.61 341.04 89.55 340.8 89.55C340.42 89.55 340.06 89.73 339.72 90.09C339.4 90.43 339.13 90.86 338.91 91.38C338.71 91.9 338.61 92.42 338.61 92.94V102H336.6V92.46C336.6 91.32 336.49 90.56 336.27 90.18C336.07 89.8 335.68 89.61 335.1 89.61C334.88 89.61 334.65 89.69 334.41 89.85C334.19 89.99 333.98 90.2 333.78 90.48C333.58 90.74 333.42 91.07 333.3 91.47C333.18 91.87 333.12 92.33 333.12 92.85V102H331.14ZM352.98 102.33C352.42 102.33 351.89 102.24 351.39 102.06C350.89 101.9 350.43 101.66 350.01 101.34C349.61 101.02 349.25 100.64 348.93 100.2L348.18 102H346.8V82.05H348.96H349.26V82.26C349.14 82.38 349.06 82.51 349.02 82.65C349 82.79 348.99 83.03 348.99 83.37V90.39C349.21 90.03 349.47 89.7 349.77 89.4C350.07 89.1 350.4 88.84 350.76 88.62C351.12 88.4 351.5 88.24 351.9 88.14C352.3 88.02 352.69 87.96 353.07 87.96C353.91 87.96 354.67 88.11 355.35 88.41C356.05 88.69 356.65 89.13 357.15 89.73C357.65 90.31 358.03 91.04 358.29 91.92C358.57 92.8 358.71 93.83 358.71 95.01C358.71 96.23 358.55 97.3 358.23 98.22C357.91 99.14 357.47 99.91 356.91 100.53C356.37 101.13 355.76 101.58 355.08 101.88C354.4 102.18 353.7 102.33 352.98 102.33ZM352.71 100.41C353.19 100.41 353.65 100.32 354.09 100.14C354.55 99.96 354.96 99.67 355.32 99.27C355.68 98.85 355.96 98.3 356.16 97.62C356.38 96.94 356.49 96.11 356.49 95.13C356.49 94.23 356.4 93.45 356.22 92.79C356.04 92.11 355.78 91.55 355.44 91.11C355.12 90.67 354.73 90.35 354.27 90.15C353.81 89.93 353.31 89.82 352.77 89.82C352.03 89.82 351.37 90.05 350.79 90.51C350.23 90.95 349.79 91.58 349.47 92.4C349.15 93.2 348.99 94.13 348.99 95.19C348.99 95.97 349.06 96.68 349.2 97.32C349.34 97.96 349.55 98.51 349.83 98.97C350.13 99.43 350.51 99.79 350.97 100.05C351.45 100.29 352.03 100.41 352.71 100.41ZM368.16 102.3C367.16 102.3 366.25 102.15 365.43 101.85C364.61 101.53 363.9 101.07 363.3 100.47C362.72 99.87 362.27 99.13 361.95 98.25C361.63 97.35 361.47 96.33 361.47 95.19C361.47 94.03 361.63 93 361.95 92.1C362.29 91.2 362.74 90.45 363.3 89.85C363.88 89.23 364.55 88.76 365.31 88.44C366.09 88.12 366.91 87.96 367.77 87.96C368.55 87.96 369.28 88.09 369.96 88.35C370.64 88.61 371.23 89.01 371.73 89.55C372.23 90.07 372.62 90.74 372.9 91.56C373.2 92.38 373.35 93.35 373.35 94.47C373.35 94.63 373.34 94.8 373.32 94.98C373.32 95.14 373.31 95.3 373.29 95.46H363.54C363.58 96.34 363.73 97.11 363.99 97.77C364.25 98.41 364.59 98.94 365.01 99.36C365.43 99.76 365.91 100.06 366.45 100.26C367.01 100.46 367.6 100.56 368.22 100.56C368.7 100.56 369.15 100.51 369.57 100.41C369.99 100.29 370.38 100.12 370.74 99.9C371.12 99.66 371.46 99.37 371.76 99.03L372.96 100.2C372.58 100.66 372.14 101.05 371.64 101.37C371.16 101.69 370.63 101.92 370.05 102.06C369.47 102.22 368.84 102.3 368.16 102.3ZM363.63 93.78H371.16C371.16 93.14 371.07 92.57 370.89 92.07C370.73 91.55 370.49 91.11 370.17 90.75C369.87 90.37 369.5 90.09 369.06 89.91C368.64 89.71 368.16 89.61 367.62 89.61C367.14 89.61 366.68 89.69 366.24 89.85C365.82 90.01 365.43 90.27 365.07 90.63C364.71 90.97 364.4 91.4 364.14 91.92C363.9 92.44 363.73 93.06 363.63 93.78ZM378.57 88.29H380.82L380.73 92.28L380.46 91.83C380.58 91.21 380.79 90.66 381.09 90.18C381.39 89.7 381.75 89.3 382.17 88.98C382.59 88.64 383.05 88.39 383.55 88.23C384.05 88.05 384.57 87.96 385.11 87.96C385.83 87.96 386.49 88.09 387.09 88.35C387.71 88.59 388.26 88.96 388.74 89.46L387.78 91.14L387.66 91.41L387.45 91.29C387.41 91.13 387.35 90.98 387.27 90.84C387.19 90.7 387.02 90.53 386.76 90.33C386.44 90.13 386.14 90 385.86 89.94C385.6 89.86 385.3 89.82 384.96 89.82C384.46 89.82 383.96 89.92 383.46 90.12C382.96 90.3 382.5 90.59 382.08 90.99C381.68 91.39 381.36 91.9 381.12 92.52C380.88 93.14 380.76 93.88 380.76 94.74V102.03H378.57V88.29ZM412.5 102.24C411.26 102.24 410.16 101.94 409.2 101.34C408.26 100.72 407.52 99.88 406.98 98.82C406.44 97.74 406.17 96.51 406.17 95.13C406.17 93.73 406.44 92.5 406.98 91.44C407.52 90.36 408.26 89.52 409.2 88.92C410.16 88.3 411.26 87.99 412.5 87.99C413.74 87.99 414.83 88.3 415.77 88.92C416.73 89.52 417.48 90.36 418.02 91.44C418.56 92.5 418.83 93.73 418.83 95.13C418.83 96.51 418.56 97.74 418.02 98.82C417.48 99.88 416.73 100.72 415.77 101.34C414.83 101.94 413.74 102.24 412.5 102.24ZM412.5 100.44C413.3 100.44 414 100.21 414.6 99.75C415.2 99.29 415.67 98.66 416.01 97.86C416.37 97.06 416.55 96.14 416.55 95.1C416.55 94.06 416.37 93.14 416.01 92.34C415.67 91.54 415.2 90.92 414.6 90.48C414 90.02 413.3 89.79 412.5 89.79C411.72 89.79 411.02 90.02 410.4 90.48C409.8 90.92 409.32 91.54 408.96 92.34C408.62 93.14 408.45 94.06 408.45 95.1C408.45 96.14 408.62 97.06 408.96 97.86C409.32 98.66 409.8 99.29 410.4 99.75C411.02 100.21 411.72 100.44 412.5 100.44ZM424.86 90H421.89V88.29H424.86V87.15C424.86 85.93 425.07 84.93 425.49 84.15C425.93 83.37 426.53 82.8 427.29 82.44C428.05 82.06 428.92 81.87 429.9 81.87C430.76 81.87 431.56 82.03 432.3 82.35C433.06 82.65 433.69 83.12 434.19 83.76L433.05 85.35L432.87 85.59L432.69 85.47C432.67 85.31 432.63 85.15 432.57 84.99C432.51 84.83 432.37 84.63 432.15 84.39C431.83 84.11 431.51 83.91 431.19 83.79C430.87 83.67 430.46 83.61 429.96 83.61C429.38 83.61 428.86 83.73 428.4 83.97C427.94 84.19 427.58 84.56 427.32 85.08C427.06 85.58 426.93 86.27 426.93 87.15V88.29H431.43V90H426.93V102H424.86V90ZM458.97 102.21C458.09 102.21 457.37 102.06 456.81 101.76C456.25 101.46 455.82 101 455.52 100.38C455.22 99.74 455.02 98.94 454.92 97.98C454.84 97.02 454.82 95.88 454.86 94.56L455.22 84.78L457.47 84.51L457.77 84.48L457.8 84.69C457.7 84.83 457.61 84.97 457.53 85.11C457.47 85.25 457.42 85.49 457.38 85.83L457.11 89.22L457.2 89.76L456.99 94.71C456.93 96.23 456.97 97.41 457.11 98.25C457.25 99.07 457.5 99.64 457.86 99.96C458.22 100.26 458.7 100.41 459.3 100.41C459.96 100.41 460.54 100.28 461.04 100.02C461.56 99.76 462.1 99.43 462.66 99.03L463.32 100.74C462.64 101.24 461.94 101.61 461.22 101.85C460.5 102.09 459.75 102.21 458.97 102.21ZM452.1 88.29H461.97V90.06H452.1V88.29ZM467.19 82.05H469.26H469.56V82.26C469.44 82.38 469.36 82.51 469.32 82.65C469.3 82.79 469.29 83.03 469.29 83.37V90.72C469.65 90.16 470.07 89.68 470.55 89.28C471.05 88.86 471.57 88.54 472.11 88.32C472.67 88.08 473.23 87.96 473.79 87.96C474.61 87.96 475.33 88.15 475.95 88.53C476.59 88.91 477.08 89.52 477.42 90.36C477.78 91.2 477.96 92.31 477.96 93.69V102H475.86V93.75C475.86 92.79 475.75 92.03 475.53 91.47C475.31 90.89 475.01 90.48 474.63 90.24C474.25 89.98 473.82 89.85 473.34 89.85C472.98 89.85 472.61 89.91 472.23 90.03C471.85 90.15 471.48 90.33 471.12 90.57C470.78 90.81 470.47 91.11 470.19 91.47C469.91 91.81 469.69 92.2 469.53 92.64C469.37 93.08 469.29 93.57 469.29 94.11V102H467.19V82.05ZM488.16 102.3C487.16 102.3 486.25 102.15 485.43 101.85C484.61 101.53 483.9 101.07 483.3 100.47C482.72 99.87 482.27 99.13 481.95 98.25C481.63 97.35 481.47 96.33 481.47 95.19C481.47 94.03 481.63 93 481.95 92.1C482.29 91.2 482.74 90.45 483.3 89.85C483.88 89.23 484.55 88.76 485.31 88.44C486.09 88.12 486.91 87.96 487.77 87.96C488.55 87.96 489.28 88.09 489.96 88.35C490.64 88.61 491.23 89.01 491.73 89.55C492.23 90.07 492.62 90.74 492.9 91.56C493.2 92.38 493.35 93.35 493.35 94.47C493.35 94.63 493.34 94.8 493.32 94.98C493.32 95.14 493.31 95.3 493.29 95.46H483.54C483.58 96.34 483.73 97.11 483.99 97.77C484.25 98.41 484.59 98.94 485.01 99.36C485.43 99.76 485.91 100.06 486.45 100.26C487.01 100.46 487.6 100.56 488.22 100.56C488.7 100.56 489.15 100.51 489.57 100.41C489.99 100.29 490.38 100.12 490.74 99.9C491.12 99.66 491.46 99.37 491.76 99.03L492.96 100.2C492.58 100.66 492.14 101.05 491.64 101.37C491.16 101.69 490.63 101.92 490.05 102.06C489.47 102.22 488.84 102.3 488.16 102.3ZM483.63 93.78H491.16C491.16 93.14 491.07 92.57 490.89 92.07C490.73 91.55 490.49 91.11 490.17 90.75C489.87 90.37 489.5 90.09 489.06 89.91C488.64 89.71 488.16 89.61 487.62 89.61C487.14 89.61 486.68 89.69 486.24 89.85C485.82 90.01 485.43 90.27 485.07 90.63C484.71 90.97 484.4 91.4 484.14 91.92C483.9 92.44 483.73 93.06 483.63 93.78ZM518.55 102.33C517.55 102.33 516.63 102.15 515.79 101.79C514.95 101.43 514.22 100.93 513.6 100.29C513 99.65 512.53 98.9 512.19 98.04C511.85 97.16 511.68 96.2 511.68 95.16C511.68 94.14 511.85 93.2 512.19 92.34C512.53 91.46 513 90.7 513.6 90.06C514.22 89.42 514.95 88.92 515.79 88.56C516.63 88.2 517.54 88.02 518.52 88.02C519.64 88.02 520.64 88.25 521.52 88.71C522.42 89.15 523.15 89.77 523.71 90.57L522.36 91.89L522.15 92.1L522 91.95C522 91.79 521.96 91.64 521.88 91.5C521.82 91.36 521.67 91.17 521.43 90.93C520.99 90.53 520.52 90.25 520.02 90.09C519.52 89.93 518.94 89.85 518.28 89.85C517.7 89.85 517.15 89.97 516.63 90.21C516.11 90.45 515.64 90.8 515.22 91.26C514.82 91.7 514.5 92.24 514.26 92.88C514.02 93.52 513.9 94.23 513.9 95.01C513.9 95.79 514.02 96.51 514.26 97.17C514.5 97.81 514.83 98.37 515.25 98.85C515.67 99.33 516.17 99.71 516.75 99.99C517.35 100.25 517.99 100.38 518.67 100.38C519.13 100.38 519.57 100.32 519.99 100.2C520.41 100.06 520.81 99.87 521.19 99.63C521.57 99.37 521.92 99.06 522.24 98.7L523.5 100.17C522.82 100.89 522.06 101.43 521.22 101.79C520.4 102.15 519.51 102.33 518.55 102.33ZM533.16 102.3C532.16 102.3 531.25 102.15 530.43 101.85C529.61 101.53 528.9 101.07 528.3 100.47C527.72 99.87 527.27 99.13 526.95 98.25C526.63 97.35 526.47 96.33 526.47 95.19C526.47 94.03 526.63 93 526.95 92.1C527.29 91.2 527.74 90.45 528.3 89.85C528.88 89.23 529.55 88.76 530.31 88.44C531.09 88.12 531.91 87.96 532.77 87.96C533.55 87.96 534.28 88.09 534.96 88.35C535.64 88.61 536.23 89.01 536.73 89.55C537.23 90.07 537.62 90.74 537.9 91.56C538.2 92.38 538.35 93.35 538.35 94.47C538.35 94.63 538.34 94.8 538.32 94.98C538.32 95.14 538.31 95.3 538.29 95.46H528.54C528.58 96.34 528.73 97.11 528.99 97.77C529.25 98.41 529.59 98.94 530.01 99.36C530.43 99.76 530.91 100.06 531.45 100.26C532.01 100.46 532.6 100.56 533.22 100.56C533.7 100.56 534.15 100.51 534.57 100.41C534.99 100.29 535.38 100.12 535.74 99.9C536.12 99.66 536.46 99.37 536.76 99.03L537.96 100.2C537.58 100.66 537.14 101.05 536.64 101.37C536.16 101.69 535.63 101.92 535.05 102.06C534.47 102.22 533.84 102.3 533.16 102.3ZM528.63 93.78H536.16C536.16 93.14 536.07 92.57 535.89 92.07C535.73 91.55 535.49 91.11 535.17 90.75C534.87 90.37 534.5 90.09 534.06 89.91C533.64 89.71 533.16 89.61 532.62 89.61C532.14 89.61 531.68 89.69 531.24 89.85C530.82 90.01 530.43 90.27 530.07 90.63C529.71 90.97 529.4 91.4 529.14 91.92C528.9 92.44 528.73 93.06 528.63 93.78ZM543.57 88.29H545.82L545.73 92.28L545.46 91.83C545.58 91.21 545.79 90.66 546.09 90.18C546.39 89.7 546.75 89.3 547.17 88.98C547.59 88.64 548.05 88.39 548.55 88.23C549.05 88.05 549.57 87.96 550.11 87.96C550.83 87.96 551.49 88.09 552.09 88.35C552.71 88.59 553.26 88.96 553.74 89.46L552.78 91.14L552.66 91.41L552.45 91.29C552.41 91.13 552.35 90.98 552.27 90.84C552.19 90.7 552.02 90.53 551.76 90.33C551.44 90.13 551.14 90 550.86 89.94C550.6 89.86 550.3 89.82 549.96 89.82C549.46 89.82 548.96 89.92 548.46 90.12C547.96 90.3 547.5 90.59 547.08 90.99C546.68 91.39 546.36 91.9 546.12 92.52C545.88 93.14 545.76 93.88 545.76 94.74V102.03H543.57V88.29ZM563.97 102.21C563.09 102.21 562.37 102.06 561.81 101.76C561.25 101.46 560.82 101 560.52 100.38C560.22 99.74 560.02 98.94 559.92 97.98C559.84 97.02 559.82 95.88 559.86 94.56L560.22 84.78L562.47 84.51L562.77 84.48L562.8 84.69C562.7 84.83 562.61 84.97 562.53 85.11C562.47 85.25 562.42 85.49 562.38 85.83L562.11 89.22L562.2 89.76L561.99 94.71C561.93 96.23 561.97 97.41 562.11 98.25C562.25 99.07 562.5 99.64 562.86 99.96C563.22 100.26 563.7 100.41 564.3 100.41C564.96 100.41 565.54 100.28 566.04 100.02C566.56 99.76 567.1 99.43 567.66 99.03L568.32 100.74C567.64 101.24 566.94 101.61 566.22 101.85C565.5 102.09 564.75 102.21 563.97 102.21ZM557.1 88.29H566.97V90.06H557.1V88.29ZM573 102V100.26H576.51V90.03H573.18V88.29H578.67V100.26H581.88V102H573ZM577.47 85.41C577.05 85.41 576.69 85.26 576.39 84.96C576.09 84.66 575.94 84.3 575.94 83.88C575.94 83.44 576.08 83.07 576.36 82.77C576.66 82.47 577.03 82.32 577.47 82.32C577.89 82.32 578.25 82.48 578.55 82.8C578.87 83.1 579.03 83.46 579.03 83.88C579.03 84.3 578.87 84.66 578.55 84.96C578.25 85.26 577.89 85.41 577.47 85.41ZM589.86 90H586.89V88.29H589.86V87.15C589.86 85.93 590.07 84.93 590.49 84.15C590.93 83.37 591.53 82.8 592.29 82.44C593.05 82.06 593.92 81.87 594.9 81.87C595.76 81.87 596.56 82.03 597.3 82.35C598.06 82.65 598.69 83.12 599.19 83.76L598.05 85.35L597.87 85.59L597.69 85.47C597.67 85.31 597.63 85.15 597.57 84.99C597.51 84.83 597.37 84.63 597.15 84.39C596.83 84.11 596.51 83.91 596.19 83.79C595.87 83.67 595.46 83.61 594.96 83.61C594.38 83.61 593.86 83.73 593.4 83.97C592.94 84.19 592.58 84.56 592.32 85.08C592.06 85.58 591.93 86.27 591.93 87.15V88.29H596.43V90H591.93V102H589.86V90ZM603 102V100.26H606.51V90.03H603.18V88.29H608.67V100.26H611.88V102H603ZM607.47 85.41C607.05 85.41 606.69 85.26 606.39 84.96C606.09 84.66 605.94 84.3 605.94 83.88C605.94 83.44 606.08 83.07 606.36 82.77C606.66 82.47 607.03 82.32 607.47 82.32C607.89 82.32 608.25 82.48 608.55 82.8C608.87 83.1 609.03 83.46 609.03 83.88C609.03 84.3 608.87 84.66 608.55 84.96C608.25 85.26 607.89 85.41 607.47 85.41ZM623.55 102.33C622.55 102.33 621.63 102.15 620.79 101.79C619.95 101.43 619.22 100.93 618.6 100.29C618 99.65 617.53 98.9 617.19 98.04C616.85 97.16 616.68 96.2 616.68 95.16C616.68 94.14 616.85 93.2 617.19 92.34C617.53 91.46 618 90.7 618.6 90.06C619.22 89.42 619.95 88.92 620.79 88.56C621.63 88.2 622.54 88.02 623.52 88.02C624.64 88.02 625.64 88.25 626.52 88.71C627.42 89.15 628.15 89.77 628.71 90.57L627.36 91.89L627.15 92.1L627 91.95C627 91.79 626.96 91.64 626.88 91.5C626.82 91.36 626.67 91.17 626.43 90.93C625.99 90.53 625.52 90.25 625.02 90.09C624.52 89.93 623.94 89.85 623.28 89.85C622.7 89.85 622.15 89.97 621.63 90.21C621.11 90.45 620.64 90.8 620.22 91.26C619.82 91.7 619.5 92.24 619.26 92.88C619.02 93.52 618.9 94.23 618.9 95.01C618.9 95.79 619.02 96.51 619.26 97.17C619.5 97.81 619.83 98.37 620.25 98.85C620.67 99.33 621.17 99.71 621.75 99.99C622.35 100.25 622.99 100.38 623.67 100.38C624.13 100.38 624.57 100.32 624.99 100.2C625.41 100.06 625.81 99.87 626.19 99.63C626.57 99.37 626.92 99.06 627.24 98.7L628.5 100.17C627.82 100.89 627.06 101.43 626.22 101.79C625.4 102.15 624.51 102.33 623.55 102.33ZM636.33 102.33C634.77 102.33 633.57 101.98 632.73 101.28C631.89 100.56 631.47 99.65 631.47 98.55C631.47 97.81 631.65 97.15 632.01 96.57C632.37 95.97 632.86 95.47 633.48 95.07C634.12 94.65 634.86 94.33 635.7 94.11C636.54 93.89 637.43 93.78 638.37 93.78C638.71 93.78 639.05 93.79 639.39 93.81C639.75 93.81 640.12 93.83 640.5 93.87C640.9 93.89 641.31 93.93 641.73 93.99L641.79 95.64C641.43 95.58 641.06 95.54 640.68 95.52C640.32 95.48 639.96 95.45 639.6 95.43C639.24 95.41 638.89 95.4 638.55 95.4C637.83 95.4 637.17 95.46 636.57 95.58C635.97 95.7 635.45 95.88 635.01 96.12C634.57 96.36 634.23 96.67 633.99 97.05C633.75 97.43 633.63 97.89 633.63 98.43C633.63 98.85 633.7 99.21 633.84 99.51C634 99.79 634.21 100.02 634.47 100.2C634.73 100.36 635.03 100.48 635.37 100.56C635.73 100.64 636.12 100.68 636.54 100.68C637.32 100.68 638.01 100.56 638.61 100.32C639.23 100.06 639.75 99.69 640.17 99.21C640.61 98.73 640.94 98.14 641.16 97.44C641.38 96.74 641.49 95.94 641.49 95.04C641.49 93.68 641.33 92.62 641.01 91.86C640.69 91.1 640.21 90.56 639.57 90.24C638.95 89.92 638.15 89.76 637.17 89.76C636.51 89.76 635.86 89.89 635.22 90.15C634.58 90.39 634 90.77 633.48 91.29L632.43 89.91C633.07 89.27 633.81 88.79 634.65 88.47C635.49 88.15 636.38 87.99 637.32 87.99C638.22 87.99 639.04 88.1 639.78 88.32C640.52 88.54 641.15 88.91 641.67 89.43C642.21 89.93 642.62 90.61 642.9 91.47C643.2 92.33 643.35 93.41 643.35 94.71V102H641.01V99.9C640.75 100.4 640.43 100.81 640.05 101.13C639.69 101.45 639.3 101.7 638.88 101.88C638.46 102.04 638.03 102.15 637.59 102.21C637.15 102.29 636.73 102.33 636.33 102.33ZM653.97 102.21C653.09 102.21 652.37 102.06 651.81 101.76C651.25 101.46 650.82 101 650.52 100.38C650.22 99.74 650.02 98.94 649.92 97.98C649.84 97.02 649.82 95.88 649.86 94.56L650.22 84.78L652.47 84.51L652.77 84.48L652.8 84.69C652.7 84.83 652.61 84.97 652.53 85.11C652.47 85.25 652.42 85.49 652.38 85.83L652.11 89.22L652.2 89.76L651.99 94.71C651.93 96.23 651.97 97.41 652.11 98.25C652.25 99.07 652.5 99.64 652.86 99.96C653.22 100.26 653.7 100.41 654.3 100.41C654.96 100.41 655.54 100.28 656.04 100.02C656.56 99.76 657.1 99.43 657.66 99.03L658.32 100.74C657.64 101.24 656.94 101.61 656.22 101.85C655.5 102.09 654.75 102.21 653.97 102.21ZM647.1 88.29H656.97V90.06H647.1V88.29ZM668.16 102.3C667.16 102.3 666.25 102.15 665.43 101.85C664.61 101.53 663.9 101.07 663.3 100.47C662.72 99.87 662.27 99.13 661.95 98.25C661.63 97.35 661.47 96.33 661.47 95.19C661.47 94.03 661.63 93 661.95 92.1C662.29 91.2 662.74 90.45 663.3 89.85C663.88 89.23 664.55 88.76 665.31 88.44C666.09 88.12 666.91 87.96 667.77 87.96C668.55 87.96 669.28 88.09 669.96 88.35C670.64 88.61 671.23 89.01 671.73 89.55C672.23 90.07 672.62 90.74 672.9 91.56C673.2 92.38 673.35 93.35 673.35 94.47C673.35 94.63 673.34 94.8 673.32 94.98C673.32 95.14 673.31 95.3 673.29 95.46H663.54C663.58 96.34 663.73 97.11 663.99 97.77C664.25 98.41 664.59 98.94 665.01 99.36C665.43 99.76 665.91 100.06 666.45 100.26C667.01 100.46 667.6 100.56 668.22 100.56C668.7 100.56 669.15 100.51 669.57 100.41C669.99 100.29 670.38 100.12 670.74 99.9C671.12 99.66 671.46 99.37 671.76 99.03L672.96 100.2C672.58 100.66 672.14 101.05 671.64 101.37C671.16 101.69 670.63 101.92 670.05 102.06C669.47 102.22 668.84 102.3 668.16 102.3ZM663.63 93.78H671.16C671.16 93.14 671.07 92.57 670.89 92.07C670.73 91.55 670.49 91.11 670.17 90.75C669.87 90.37 669.5 90.09 669.06 89.91C668.64 89.71 668.16 89.61 667.62 89.61C667.14 89.61 666.68 89.69 666.24 89.85C665.82 90.01 665.43 90.27 665.07 90.63C664.71 90.97 664.4 91.4 664.14 91.92C663.9 92.44 663.73 93.06 663.63 93.78Z" fill="white"/>
</svg>
